<svg width="34" height="31" viewBox="0 0 34 31" fill="none" xmlns="http://www.w3.org/2000/svg">
<path d="M33.087 3.21215L33.0673 3.19516L33.046 3.1803C32.9086 3.0845 32.7528 3.01843 32.5887 2.98603C32.4246 2.95362 32.2555 2.95552 32.0921 2.99163L32.0921 2.99147L32.0797 2.99455L22.2574 5.43031L12.3896 0.551785L12.2848 0.5H12.168H11.72H11.6592L11.6002 0.514565L1.36019 3.0418L1.34956 3.04442L1.33905 3.04751C1.10389 3.11661 0.895664 3.25746 0.744654 3.45126C0.593567 3.64516 0.507681 3.88198 0.500229 4.12811L0.5 4.13568V4.14325V26.841H0.499856L0.500144 26.8529C0.504276 27.0252 0.546906 27.1942 0.624706 27.3479C0.702494 27.5014 0.813401 27.6356 0.949078 27.7411L0.955332 27.746L0.961736 27.7506C1.15783 27.8934 1.39382 27.9708 1.63599 27.9728L1.63599 27.9728H1.64H1.8H1.86107L1.92035 27.9581L11.7426 25.5223L21.6104 30.4008L21.7152 30.4526H21.7466L21.7652 30.4605L21.8586 30.5H21.96H22.28H22.3408L22.3998 30.4854L32.6398 27.9582L32.6398 27.9584L32.6525 27.9549C32.8923 27.889 33.1052 27.7477 33.2584 27.5511C33.4117 27.3543 33.4969 27.1128 33.5 26.8629H33.5V26.8568V4.09586H33.5002L33.4998 4.08317C33.4956 3.91705 33.4565 3.75382 33.3853 3.60384L32.9337 3.8183L33.3853 3.60384C33.3141 3.45387 33.2124 3.32058 33.087 3.21215ZM2.78 25.397V4.97711L10.74 3.01258V23.4325L2.78 25.397ZM20.98 7.32877V27.5371L13.02 23.6081V3.39971L20.98 7.32877ZM31.22 5.53982V25.9597L23.26 27.9242V7.50435L31.22 5.53982Z" fill="#00AEEF" stroke="#00AEEF"/>
</svg>
