<svg width="32" height="35" viewBox="0 0 32 35" fill="none" xmlns="http://www.w3.org/2000/svg">
<g filter="url(#filter0_d_5532_1913)">
<path d="M21.623 7.51783H20.1338C20.0426 7.49497 19.9616 7.44228 19.9038 7.36814C19.8459 7.294 19.8145 7.20265 19.8145 7.10861C19.8145 7.01457 19.8459 6.92322 19.9038 6.84908C19.9616 6.77494 20.0426 6.72225 20.1338 6.69939H21.6357C21.7588 6.72595 21.8862 6.72462 22.0087 6.69552C22.1312 6.66641 22.2457 6.61025 22.3436 6.53116C22.4416 6.45207 22.5207 6.35206 22.575 6.23845C22.6292 6.12485 22.6574 6.00053 22.6574 5.87462C22.6574 5.74871 22.6292 5.62439 22.575 5.51078C22.5207 5.39718 22.4416 5.29717 22.3436 5.21808C22.2457 5.13899 22.1312 5.08283 22.0087 5.05372C21.8862 5.02461 21.7588 5.02329 21.6357 5.04985H20.1338C20.0716 5.06544 20.0067 5.06664 19.9439 5.05337C19.8812 5.04009 19.8223 5.01268 19.7717 4.97323C19.7212 4.93378 19.6803 4.88332 19.6521 4.82568C19.624 4.76805 19.6094 4.70476 19.6094 4.64063C19.6094 4.57649 19.624 4.51321 19.6521 4.45557C19.6803 4.39794 19.7212 4.34748 19.7717 4.30803C19.8223 4.26857 19.8812 4.24117 19.9439 4.22789C20.0067 4.21461 20.0716 4.21582 20.1338 4.23141H21.6357C21.8585 4.22011 22.0813 4.25425 22.2904 4.33173C22.4996 4.40921 22.6909 4.52842 22.8526 4.68212C23.0143 4.83581 23.143 5.02079 23.231 5.22579C23.3189 5.43079 23.3643 5.65154 23.3643 5.87462C23.3643 6.0977 23.3189 6.31845 23.231 6.52345C23.143 6.72845 23.0143 6.91342 22.8526 7.06712C22.6909 7.22082 22.4996 7.34003 22.2904 7.41751C22.0813 7.49499 21.8585 7.52912 21.6357 7.51783H21.623Z" fill="white"/>
<path d="M20.1115 27.0003H5.53563C5.12836 27.0003 4.73776 26.8385 4.44978 26.5505C4.16179 26.2625 4 25.8719 4 25.4646V1.53574C4 1.12847 4.16179 0.737872 4.44978 0.449885C4.73776 0.161897 5.12836 0.000107939 5.53563 0.000107939H20.1115C20.4919 -0.0044009 20.8605 0.132489 21.1458 0.384249C21.4311 0.636009 21.6127 0.98471 21.6556 1.36277C21.6619 1.41817 21.6573 1.47429 21.642 1.52791C21.6267 1.58153 21.601 1.63161 21.5663 1.67529C21.5316 1.71897 21.4887 1.7554 21.44 1.78249C21.3912 1.80957 21.3376 1.82679 21.2822 1.83317C21.2268 1.83954 21.1707 1.83493 21.1171 1.81962C21.0634 1.8043 21.0134 1.77858 20.9697 1.74391C20.926 1.70924 20.8896 1.6663 20.8625 1.61756C20.8354 1.56881 20.8182 1.51521 20.8118 1.4598C20.7931 1.28449 20.7106 1.12219 20.5798 1.0039C20.4491 0.885619 20.2794 0.819633 20.1031 0.81855H5.53563C5.34542 0.81855 5.163 0.894111 5.0285 1.02861C4.894 1.16311 4.81844 1.34553 4.81844 1.53574V25.4646C4.81844 25.6548 4.894 25.8373 5.0285 25.9718C5.163 26.1063 5.34542 26.1818 5.53563 26.1818H20.1115C20.2988 26.1774 20.4769 26.0999 20.6077 25.9659C20.7386 25.8319 20.8119 25.6519 20.8118 25.4646V13.1205C20.7962 13.0583 20.795 12.9933 20.8083 12.9306C20.8216 12.8679 20.849 12.809 20.8884 12.7584C20.9279 12.7078 20.9783 12.6669 21.036 12.6388C21.0936 12.6107 21.1569 12.5961 21.221 12.5961C21.2852 12.5961 21.3485 12.6107 21.4061 12.6388C21.4637 12.6669 21.5142 12.7078 21.5536 12.7584C21.5931 12.809 21.6205 12.8679 21.6338 12.9306C21.647 12.9933 21.6458 13.0583 21.6303 13.1205V25.4646C21.6303 25.869 21.4708 26.2571 21.1865 26.5446C20.9021 26.8321 20.5158 26.9958 20.1115 27.0003Z" fill="white"/>
<path d="M15.623 9.33668H6.34172C6.05529 9.33668 5.78059 9.22289 5.57805 9.02035C5.3755 8.81781 5.26172 8.54311 5.26172 8.25667V4.67071C5.2617 4.52745 5.29019 4.38562 5.34551 4.25348C5.40084 4.12133 5.48191 4.00152 5.58399 3.90101C5.68607 3.80049 5.80713 3.7213 5.94012 3.66802C6.0731 3.61475 6.21536 3.58847 6.3586 3.59071H16.3782C16.4694 3.61357 16.5504 3.66626 16.6082 3.7404C16.6661 3.81454 16.6975 3.90589 16.6975 3.99993C16.6975 4.09397 16.6661 4.18532 16.6082 4.25946C16.5504 4.3336 16.4694 4.38629 16.3782 4.40915H6.3586C6.28957 4.41024 6.22367 4.43814 6.17485 4.48696C6.12603 4.53578 6.09812 4.60168 6.09704 4.67071V8.25667C6.09704 8.29102 6.1038 8.32503 6.11695 8.35677C6.13009 8.3885 6.14936 8.41734 6.17365 8.44163C6.19793 8.46591 6.22677 8.48518 6.2585 8.49832C6.29024 8.51147 6.32425 8.51824 6.3586 8.51824H15.6399C15.7021 8.50264 15.7671 8.50144 15.8298 8.51472C15.8925 8.528 15.9514 8.5554 16.002 8.59485C16.0526 8.63431 16.0935 8.68477 16.1216 8.7424C16.1497 8.80004 16.1643 8.86332 16.1643 8.92746C16.1643 8.99159 16.1497 9.05488 16.1216 9.11251C16.0935 9.17014 16.0526 9.22061 16.002 9.26006C15.9514 9.29951 15.8925 9.32692 15.8298 9.3402C15.7671 9.35347 15.7021 9.35227 15.6399 9.33668H15.623ZM9.14721 14.9181H5.68781C5.57593 14.9181 5.46862 14.8737 5.3895 14.7946C5.31039 14.7154 5.26594 14.6081 5.26594 14.4962V11.0368C5.26594 10.925 5.31039 10.8176 5.3895 10.7385C5.46862 10.6594 5.57593 10.615 5.68781 10.615H9.14721C9.2591 10.615 9.3664 10.6594 9.44552 10.7385C9.52464 10.8176 9.56909 10.925 9.56909 11.0368V14.4962C9.56909 14.6081 9.52464 14.7154 9.44552 14.7946C9.3664 14.8737 9.2591 14.9181 9.14721 14.9181ZM6.09704 14.0997H8.73799V11.4587H6.09704V14.0997ZM14.5515 14.9181H11.1089C10.997 14.9181 10.8897 14.8737 10.8106 14.7946C10.7315 14.7154 10.6871 14.6081 10.6871 14.4962V11.0368C10.6871 10.925 10.7315 10.8176 10.8106 10.7385C10.8897 10.6594 10.997 10.615 11.1089 10.615H14.5683C14.6802 10.615 14.7875 10.6594 14.8666 10.7385C14.9458 10.8176 14.9902 10.925 14.9902 11.0368V14.4962C14.9903 14.5531 14.9788 14.6094 14.9566 14.6617C14.9343 14.714 14.9017 14.7613 14.8607 14.8007C14.8198 14.8401 14.7712 14.8708 14.7181 14.891C14.6649 14.9112 14.6083 14.9204 14.5515 14.9181ZM11.5013 14.0997H14.1422V11.4587H11.5013V14.0997ZM19.9684 14.9181H16.509C16.3971 14.9181 16.2898 14.8737 16.2107 14.7946C16.1315 14.7154 16.0871 14.6081 16.0871 14.4962V11.0368C16.0871 10.925 16.1315 10.8176 16.2107 10.7385C16.2898 10.6594 16.3971 10.615 16.509 10.615H16.7832C16.8734 10.626 16.9576 10.6658 17.0234 10.7286C17.0891 10.7914 17.1328 10.8737 17.148 10.9633C17.1632 11.0529 17.149 11.145 17.1076 11.2259C17.0662 11.3068 16.9997 11.3722 16.9182 11.4123V14.0786H19.5465V12.9817C19.5309 12.9195 19.5297 12.8545 19.543 12.7918C19.5562 12.7291 19.5837 12.6702 19.6231 12.6196C19.6626 12.569 19.713 12.5281 19.7707 12.5C19.8283 12.4719 19.8916 12.4573 19.9557 12.4573C20.0198 12.4573 20.0831 12.4719 20.1408 12.5C20.1984 12.5281 20.2489 12.569 20.2883 12.6196C20.3278 12.6702 20.3552 12.7291 20.3684 12.7918C20.3817 12.8545 20.3805 12.9195 20.3649 12.9817V14.5089C20.3619 14.6143 20.3196 14.7148 20.2462 14.7906C20.1728 14.8663 20.0737 14.9118 19.9684 14.9181ZM9.14721 19.8752H5.68781C5.57593 19.8752 5.46862 19.8307 5.3895 19.7516C5.31039 19.6725 5.26594 19.5652 5.26594 19.4533V15.9939C5.26594 15.882 5.31039 15.7747 5.3895 15.6956C5.46862 15.6165 5.57593 15.572 5.68781 15.572H9.14721C9.2591 15.572 9.3664 15.6165 9.44552 15.6956C9.52464 15.7747 9.56909 15.882 9.56909 15.9939V19.4533C9.56909 19.5652 9.52464 19.6725 9.44552 19.7516C9.3664 19.8307 9.2591 19.8752 9.14721 19.8752ZM6.09704 19.0567H8.73799V16.4158H6.09704V19.0567ZM14.5515 19.8752H11.1089C10.997 19.8752 10.8897 19.8307 10.8106 19.7516C10.7315 19.6725 10.6871 19.5652 10.6871 19.4533V15.9939C10.6871 15.882 10.7315 15.7747 10.8106 15.6956C10.8897 15.6165 10.997 15.572 11.1089 15.572H14.5683C14.6802 15.572 14.7875 15.6165 14.8666 15.6956C14.9458 15.7747 14.9902 15.882 14.9902 15.9939V19.4533C14.9903 19.5101 14.9788 19.5664 14.9566 19.6187C14.9343 19.6711 14.9017 19.7183 14.8607 19.7577C14.8198 19.7971 14.7712 19.8279 14.7181 19.848C14.6649 19.8682 14.6083 19.8774 14.5515 19.8752ZM11.5013 19.0567H14.1422V16.4158H11.5013V19.0567ZM19.9684 19.8752H16.509C16.3971 19.8752 16.2898 19.8307 16.2107 19.7516C16.1315 19.6725 16.0871 19.5652 16.0871 19.4533V15.9939C16.0871 15.882 16.1315 15.7747 16.2107 15.6956C16.2898 15.6165 16.3971 15.572 16.509 15.572H19.9684C20.0803 15.572 20.1876 15.6165 20.2667 15.6956C20.3458 15.7747 20.3902 15.882 20.3902 15.9939V19.4533C20.3902 19.5652 20.3458 19.6725 20.2667 19.7516C20.1876 19.8307 20.0803 19.8752 19.9684 19.8752ZM16.9182 19.0567H19.5465V16.4158H16.9098L16.9182 19.0567ZM9.14721 24.828H5.68781C5.57593 24.828 5.46862 24.7836 5.3895 24.7044C5.31039 24.6253 5.26594 24.518 5.26594 24.4061V20.9467C5.26594 20.8349 5.31039 20.7275 5.3895 20.6484C5.46862 20.5693 5.57593 20.5249 5.68781 20.5249H9.14721C9.2591 20.5249 9.3664 20.5693 9.44552 20.6484C9.52464 20.7275 9.56909 20.8349 9.56909 20.9467V24.4061C9.56909 24.518 9.52464 24.6253 9.44552 24.7044C9.3664 24.7836 9.2591 24.828 9.14721 24.828ZM6.09704 24.0096H8.73799V21.3686H6.09704V24.0096ZM14.5515 24.828H11.1089C10.997 24.828 10.8897 24.7836 10.8106 24.7044C10.7315 24.6253 10.6871 24.518 10.6871 24.4061V20.9467C10.6871 20.8349 10.7315 20.7275 10.8106 20.6484C10.8897 20.5693 10.997 20.5249 11.1089 20.5249H14.5683C14.6802 20.5249 14.7875 20.5693 14.8666 20.6484C14.9458 20.7275 14.9902 20.8349 14.9902 20.9467V24.4061C14.9903 24.463 14.9788 24.5193 14.9566 24.5716C14.9343 24.6239 14.9017 24.6712 14.8607 24.7106C14.8198 24.75 14.7712 24.7807 14.7181 24.8009C14.6649 24.8211 14.6083 24.8303 14.5515 24.828ZM11.5013 24.0096H14.1422V21.3686H11.5013V24.0096ZM19.9684 24.828H15.6652C15.5533 24.828 15.446 24.7836 15.3669 24.7044C15.2878 24.6253 15.2433 24.518 15.2433 24.4061V20.9467C15.2433 20.8349 15.2878 20.7275 15.3669 20.6484C15.446 20.5693 15.5533 20.5249 15.6652 20.5249H19.9684C20.0803 20.5249 20.1876 20.5693 20.2667 20.6484C20.3458 20.7275 20.3902 20.8349 20.3902 20.9467V24.4061C20.3902 24.518 20.3458 24.6253 20.2667 24.7044C20.1876 24.7836 20.0803 24.828 19.9684 24.828ZM16.0829 24.0096H19.5465V21.3686H16.0744L16.0829 24.0096Z" fill="white"/>
<path d="M21.2336 13.5295C19.9946 13.5295 18.7833 13.1621 17.7531 12.4737C16.7228 11.7853 15.9198 10.8069 15.4456 9.6621C14.9715 8.51734 14.8474 7.25769 15.0891 6.04242C15.3309 4.82715 15.9275 3.71086 16.8037 2.8347C17.6799 1.95854 18.7961 1.36187 20.0114 1.12014C21.2267 0.878405 22.4863 1.00247 23.6311 1.47664C24.7759 1.95082 25.7543 2.7538 26.4427 3.78406C27.1311 4.81431 27.4985 6.02556 27.4985 7.26464C27.4974 8.92584 26.837 10.5187 25.6623 11.6933C24.4877 12.868 22.8948 13.5284 21.2336 13.5295ZM21.2336 1.82242C20.1562 1.82242 19.1031 2.14195 18.2073 2.7406C17.3116 3.33925 16.6135 4.19012 16.2014 5.18557C15.7893 6.18102 15.6817 7.27634 15.8922 8.33296C16.1027 9.38958 16.6218 10.36 17.3839 11.1216C18.146 11.8831 19.1169 12.4015 20.1737 12.6112C21.2305 12.8208 22.3257 12.7124 23.3208 12.2995C24.3159 11.8866 25.1663 11.1879 25.7642 10.2917C26.3622 9.39545 26.6809 8.34202 26.6801 7.26464C26.6778 5.82123 26.1032 4.43764 25.0821 3.41738C24.0611 2.39713 22.677 1.82354 21.2336 1.82242Z" fill="white"/>
<path d="M22.132 10.1243H19.9678C19.8765 10.1015 19.7956 10.0488 19.7377 9.97463C19.6799 9.90048 19.6484 9.80914 19.6484 9.71509C19.6484 9.62105 19.6799 9.52971 19.7377 9.45556C19.7956 9.38142 19.8765 9.32874 19.9678 9.30587H22.1446C22.3332 9.26519 22.5021 9.16115 22.6232 9.01108C22.7443 8.86101 22.8104 8.67397 22.8104 8.4811C22.8104 8.28824 22.7443 8.1012 22.6232 7.95113C22.5021 7.80106 22.3332 7.69701 22.1446 7.65633H19.9678C19.8765 7.63347 19.7956 7.58078 19.7377 7.50664C19.6799 7.4325 19.6484 7.34115 19.6484 7.24711C19.6484 7.15307 19.6799 7.06172 19.7377 6.98758C19.7956 6.91344 19.8765 6.86075 19.9678 6.83789H22.1446C22.566 6.85925 22.9631 7.04169 23.2539 7.34751C23.5446 7.65334 23.7067 8.05916 23.7067 8.4811C23.7067 8.90305 23.5446 9.30887 23.2539 9.61469C22.9631 9.92051 22.566 10.103 22.1446 10.1243H22.132Z" fill="white"/>
<path d="M20.4375 10.846C20.3256 10.846 20.2183 10.8016 20.1392 10.7225C20.0601 10.6434 20.0156 10.536 20.0156 10.4242V4.09178C20.0385 4.00056 20.0912 3.91959 20.1653 3.86174C20.2395 3.80388 20.3308 3.77246 20.4248 3.77246C20.5189 3.77246 20.6102 3.80388 20.6844 3.86174C20.7585 3.91959 20.8112 4.00056 20.8341 4.09178V10.4199C20.8353 10.5283 20.7949 10.633 20.721 10.7123C20.6472 10.7917 20.5457 10.8395 20.4375 10.846Z" fill="white"/>
</g>
<defs>
<filter id="filter0_d_5532_1913" x="0" y="0" width="31.5" height="35.0002" filterUnits="userSpaceOnUse" color-interpolation-filters="sRGB">
<feFlood flood-opacity="0" result="BackgroundImageFix"/>
<feColorMatrix in="SourceAlpha" type="matrix" values="0 0 0 0 0 0 0 0 0 0 0 0 0 0 0 0 0 0 127 0" result="hardAlpha"/>
<feOffset dy="4"/>
<feGaussianBlur stdDeviation="2"/>
<feComposite in2="hardAlpha" operator="out"/>
<feColorMatrix type="matrix" values="0 0 0 0 0 0 0 0 0 0 0 0 0 0 0 0 0 0 0.25 0"/>
<feBlend mode="normal" in2="BackgroundImageFix" result="effect1_dropShadow_5532_1913"/>
<feBlend mode="normal" in="SourceGraphic" in2="effect1_dropShadow_5532_1913" result="shape"/>
</filter>
</defs>
</svg>
