<svg width="33" height="37" viewBox="0 0 33 37" fill="none" xmlns="http://www.w3.org/2000/svg">
<g filter="url(#filter0_d_4173_4718)">
<path d="M21.1217 8.56633L21.1213 8.56783H21.1338H22.623H22.6344C22.8636 8.57927 23.0927 8.54409 23.3078 8.4644C23.5234 8.38456 23.7204 8.26173 23.887 8.10336C24.0536 7.94499 24.1863 7.7544 24.2769 7.54317C24.3676 7.33194 24.4143 7.10448 24.4143 6.87462C24.4143 6.64476 24.3676 6.4173 24.2769 6.20607C24.1863 5.99484 24.0536 5.80425 23.887 5.64588C23.7204 5.48751 23.5234 5.36468 23.3078 5.28484C23.0927 5.20515 22.8636 5.16996 22.6344 5.18141H21.1398C21.0721 5.1654 21.0017 5.16456 20.9336 5.17897C20.8634 5.19382 20.7975 5.22448 20.741 5.26861C20.6844 5.31273 20.6387 5.36918 20.6072 5.43364C20.5757 5.49811 20.5594 5.56889 20.5594 5.64063C20.5594 5.71236 20.5757 5.78315 20.6072 5.84761C20.6387 5.91208 20.6844 5.96852 20.741 6.01265C20.7975 6.05678 20.8634 6.08743 20.9336 6.10228C21.0017 6.11669 21.0721 6.11585 21.1398 6.09985H22.6357V6.101L22.6462 6.09872C22.762 6.07374 22.8819 6.07498 22.9972 6.10237C23.1124 6.12975 23.2201 6.18258 23.3122 6.25698C23.4044 6.33139 23.4788 6.42547 23.5298 6.53234C23.5809 6.63922 23.6074 6.75617 23.6074 6.87462C23.6074 6.99307 23.5809 7.11002 23.5298 7.21689C23.4788 7.32377 23.4044 7.41785 23.3122 7.49225C23.2201 7.56665 23.1124 7.61948 22.9972 7.64687C22.8819 7.67425 22.762 7.6755 22.6462 7.65051L22.6465 7.64939H22.6357H21.1338V7.64784L21.1217 7.65089C21.0196 7.67646 20.9291 7.73539 20.8644 7.81832C20.7996 7.90125 20.7645 8.00342 20.7645 8.10861C20.7645 8.2138 20.7996 8.31597 20.8644 8.3989C20.9291 8.48183 21.0196 8.54076 21.1217 8.56633Z" fill="white" stroke="white" stroke-width="0.1"/>
<path d="M21.1115 28.0503L21.112 28.0503C21.5296 28.0457 21.9284 27.8766 22.222 27.5797C22.5156 27.2829 22.6803 26.8822 22.6803 26.4646V14.1265C22.6963 14.0588 22.6971 13.9884 22.6827 13.9202C22.6678 13.8501 22.6372 13.7842 22.5931 13.7276C22.5489 13.6711 22.4925 13.6253 22.428 13.5939C22.3636 13.5624 22.2928 13.5461 22.221 13.5461C22.1493 13.5461 22.0785 13.5624 22.014 13.5939C21.9496 13.6253 21.8931 13.6711 21.849 13.7276C21.8049 13.7842 21.7742 13.8501 21.7594 13.9202C21.745 13.9884 21.7458 14.0588 21.7618 14.1265V26.4646C21.7619 26.6389 21.6937 26.8063 21.572 26.931C21.4504 27.0555 21.2849 27.1276 21.1109 27.1318H6.53563C6.35868 27.1318 6.18898 27.0615 6.06386 26.9364C5.93874 26.8113 5.86844 26.6416 5.86844 26.4646V2.53574C5.86844 2.35879 5.93874 2.18909 6.06386 2.06397C6.18898 1.93884 6.35868 1.86855 6.53563 1.86855H21.1029C21.2669 1.8696 21.4247 1.93098 21.5463 2.04098C21.6679 2.15102 21.7447 2.302 21.7621 2.4651L21.7621 2.46552C21.7693 2.52744 21.7885 2.58736 21.8188 2.64184C21.8491 2.69633 21.8898 2.74432 21.9386 2.78307C21.9874 2.82182 22.0434 2.85058 22.1033 2.8677C22.1633 2.88481 22.226 2.88996 22.2879 2.88284C22.3498 2.87572 22.4098 2.85647 22.4642 2.82619C22.5187 2.79591 22.5667 2.7552 22.6055 2.70638C22.6442 2.65755 22.673 2.60158 22.6901 2.54164C22.7072 2.48171 22.7124 2.41898 22.7052 2.35706L22.6556 2.36277L22.7052 2.35714C22.661 1.96677 22.4735 1.60672 22.1789 1.34676C21.8844 1.08687 21.5039 0.945527 21.1112 0.950108H6.53563C6.1151 0.950108 5.71179 1.11717 5.41442 1.41453C5.11706 1.71189 4.95 2.11521 4.95 2.53574V26.4646C4.95 26.8852 5.11706 27.2885 5.41442 27.5858C5.71179 27.8832 6.1151 28.0503 6.53563 28.0503L21.1115 28.0503Z" fill="white" stroke="white" stroke-width="0.1"/>
<mask id="path-3-outside-1_4173_4718" maskUnits="userSpaceOnUse" x="5.26074" y="3.59082" width="17" height="23" fill="black">
<rect fill="white" x="5.26074" y="3.59082" width="17" height="23"/>
<path d="M16.6221 10.3369H7.34075C7.05431 10.3369 6.77961 10.2231 6.57707 10.0206C6.37453 9.81806 6.26074 9.54335 6.26074 9.25692V5.67096C6.26072 5.5277 6.28921 5.38587 6.34454 5.25372C6.39986 5.12158 6.48093 5.00176 6.58301 4.90125C6.68509 4.80074 6.80615 4.72154 6.93914 4.66827C7.07213 4.615 7.21438 4.58871 7.35762 4.59095H17.3772C17.4684 4.61381 17.5494 4.6665 17.6073 4.74064C17.6651 4.81478 17.6965 4.90613 17.6965 5.00017C17.6965 5.09422 17.6651 5.18556 17.6073 5.2597C17.5494 5.33385 17.4684 5.38653 17.3772 5.40939H7.35762C7.28859 5.41048 7.22269 5.43839 7.17387 5.48721C7.12505 5.53603 7.09715 5.60193 7.09606 5.67096V9.25692C7.09606 9.29126 7.10282 9.32528 7.11597 9.35701C7.12911 9.38875 7.14838 9.41758 7.17267 9.44187C7.19696 9.46616 7.22579 9.48542 7.25753 9.49857C7.28926 9.51171 7.32327 9.51848 7.35762 9.51848H16.6389C16.7011 9.50289 16.7661 9.50169 16.8288 9.51496C16.8916 9.52824 16.9505 9.55565 17.001 9.5951C17.0516 9.63455 17.0925 9.68501 17.1206 9.74265C17.1487 9.80028 17.1634 9.86357 17.1634 9.9277C17.1634 9.99183 17.1487 10.0551 17.1206 10.1128C17.0925 10.1704 17.0516 10.2208 17.001 10.2603C16.9505 10.2998 16.8916 10.3272 16.8288 10.3404C16.7661 10.3537 16.7011 10.3525 16.6389 10.3369H16.6221ZM10.1462 15.9184H6.68684C6.57495 15.9184 6.46764 15.8739 6.38853 15.7948C6.30941 15.7157 6.26496 15.6084 6.26496 15.4965V12.0371C6.26496 11.9252 6.30941 11.8179 6.38853 11.7388C6.46764 11.6597 6.57495 11.6152 6.68684 11.6152H10.1462C10.2581 11.6152 10.3654 11.6597 10.4445 11.7388C10.5237 11.8179 10.5681 11.9252 10.5681 12.0371V15.4965C10.5681 15.6084 10.5237 15.7157 10.4445 15.7948C10.3654 15.8739 10.2581 15.9184 10.1462 15.9184ZM7.09606 15.0999H9.73701V12.459H7.09606V15.0999ZM15.5505 15.9184H12.108C11.9961 15.9184 11.8888 15.8739 11.8096 15.7948C11.7305 15.7157 11.6861 15.6084 11.6861 15.4965V12.0371C11.6861 11.9252 11.7305 11.8179 11.8096 11.7388C11.8888 11.6597 11.9961 11.6152 12.108 11.6152H15.5674C15.6792 11.6152 15.7866 11.6597 15.8657 11.7388C15.9448 11.8179 15.9892 11.9252 15.9892 12.0371V15.4965C15.9893 15.5533 15.9778 15.6096 15.9556 15.6619C15.9333 15.7142 15.9007 15.7615 15.8598 15.8009C15.8188 15.8403 15.7703 15.871 15.7171 15.8912C15.664 15.9114 15.6073 15.9206 15.5505 15.9184ZM12.5003 15.0999H15.1413V12.459H12.5003V15.0999ZM20.9674 15.9184H17.508C17.3961 15.9184 17.2888 15.8739 17.2097 15.7948C17.1306 15.7157 17.0861 15.6084 17.0861 15.4965V12.0371C17.0861 11.9252 17.1306 11.8179 17.2097 11.7388C17.2888 11.6597 17.3961 11.6152 17.508 11.6152H17.7822C17.8724 11.6262 17.9567 11.6661 18.0224 11.7289C18.0881 11.7916 18.1318 11.8739 18.147 11.9635C18.1622 12.0532 18.148 12.1453 18.1066 12.2262C18.0652 12.3071 17.9988 12.3725 17.9172 12.4126V15.0788H20.5455V13.9819C20.5299 13.9197 20.5287 13.8548 20.542 13.792C20.5553 13.7293 20.5827 13.6704 20.6221 13.6199C20.6616 13.5693 20.712 13.5284 20.7697 13.5003C20.8273 13.4721 20.8906 13.4575 20.9547 13.4575C21.0189 13.4575 21.0822 13.4721 21.1398 13.5003C21.1974 13.5284 21.2479 13.5693 21.2873 13.6199C21.3268 13.6704 21.3542 13.7293 21.3675 13.792C21.3807 13.8548 21.3795 13.9197 21.3639 13.9819V15.5091C21.361 15.6146 21.3186 15.7151 21.2452 15.7908C21.1718 15.8666 21.0727 15.9121 20.9674 15.9184ZM10.1462 20.8754H6.68684C6.57495 20.8754 6.46764 20.831 6.38853 20.7519C6.30941 20.6727 6.26496 20.5654 6.26496 20.4535V16.9941C6.26496 16.8823 6.30941 16.775 6.38853 16.6958C6.46764 16.6167 6.57495 16.5723 6.68684 16.5723H10.1462C10.2581 16.5723 10.3654 16.6167 10.4445 16.6958C10.5237 16.775 10.5681 16.8823 10.5681 16.9941V20.4535C10.5681 20.5654 10.5237 20.6727 10.4445 20.7519C10.3654 20.831 10.2581 20.8754 10.1462 20.8754ZM7.09606 20.057H9.73701V17.416H7.09606V20.057ZM15.5505 20.8754H12.108C11.9961 20.8754 11.8888 20.831 11.8096 20.7519C11.7305 20.6727 11.6861 20.5654 11.6861 20.4535V16.9941C11.6861 16.8823 11.7305 16.775 11.8096 16.6958C11.8888 16.6167 11.9961 16.5723 12.108 16.5723H15.5674C15.6792 16.5723 15.7866 16.6167 15.8657 16.6958C15.9448 16.775 15.9892 16.8823 15.9892 16.9941V20.4535C15.9893 20.5104 15.9778 20.5667 15.9556 20.619C15.9333 20.6713 15.9007 20.7186 15.8598 20.758C15.8188 20.7974 15.7703 20.8281 15.7171 20.8483C15.664 20.8685 15.6073 20.8777 15.5505 20.8754ZM12.5003 20.057H15.1413V17.416H12.5003V20.057ZM20.9674 20.8754H17.508C17.3961 20.8754 17.2888 20.831 17.2097 20.7519C17.1306 20.6727 17.0861 20.5654 17.0861 20.4535V16.9941C17.0861 16.8823 17.1306 16.775 17.2097 16.6958C17.2888 16.6167 17.3961 16.5723 17.508 16.5723H20.9674C21.0793 16.5723 21.1866 16.6167 21.2657 16.6958C21.3448 16.775 21.3893 16.8823 21.3893 16.9941V20.4535C21.3893 20.5654 21.3448 20.6727 21.2657 20.7519C21.1866 20.831 21.0793 20.8754 20.9674 20.8754ZM17.9172 20.057H20.5455V17.416H17.9088L17.9172 20.057ZM10.1462 25.8283H6.68684C6.57495 25.8283 6.46764 25.7838 6.38853 25.7047C6.30941 25.6256 6.26496 25.5183 6.26496 25.4064V21.947C6.26496 21.8351 6.30941 21.7278 6.38853 21.6487C6.46764 21.5696 6.57495 21.5251 6.68684 21.5251H10.1462C10.2581 21.5251 10.3654 21.5696 10.4445 21.6487C10.5237 21.7278 10.5681 21.8351 10.5681 21.947V25.4064C10.5681 25.5183 10.5237 25.6256 10.4445 25.7047C10.3654 25.7838 10.2581 25.8283 10.1462 25.8283ZM7.09606 25.0098H9.73701V22.3689H7.09606V25.0098ZM15.5505 25.8283H12.108C11.9961 25.8283 11.8888 25.7838 11.8096 25.7047C11.7305 25.6256 11.6861 25.5183 11.6861 25.4064V21.947C11.6861 21.8351 11.7305 21.7278 11.8096 21.6487C11.8888 21.5696 11.9961 21.5251 12.108 21.5251H15.5674C15.6792 21.5251 15.7866 21.5696 15.8657 21.6487C15.9448 21.7278 15.9892 21.8351 15.9892 21.947V25.4064C15.9893 25.4632 15.9778 25.5195 15.9556 25.5718C15.9333 25.6241 15.9007 25.6714 15.8598 25.7108C15.8188 25.7502 15.7703 25.7809 15.7171 25.8011C15.664 25.8213 15.6073 25.8305 15.5505 25.8283ZM12.5003 25.0098H15.1413V22.3689H12.5003V25.0098ZM20.9674 25.8283H16.6642C16.5523 25.8283 16.445 25.7838 16.3659 25.7047C16.2868 25.6256 16.2424 25.5183 16.2424 25.4064V21.947C16.2424 21.8351 16.2868 21.7278 16.3659 21.6487C16.445 21.5696 16.5523 21.5251 16.6642 21.5251H20.9674C21.0793 21.5251 21.1866 21.5696 21.2657 21.6487C21.3448 21.7278 21.3893 21.8351 21.3893 21.947V25.4064C21.3893 25.5183 21.3448 25.6256 21.2657 25.7047C21.1866 25.7838 21.0793 25.8283 20.9674 25.8283ZM17.0819 25.0098H20.5455V22.3689H17.0735L17.0819 25.0098Z"/>
</mask>
<path d="M16.6221 10.3369H7.34075C7.05431 10.3369 6.77961 10.2231 6.57707 10.0206C6.37453 9.81806 6.26074 9.54335 6.26074 9.25692V5.67096C6.26072 5.5277 6.28921 5.38587 6.34454 5.25372C6.39986 5.12158 6.48093 5.00176 6.58301 4.90125C6.68509 4.80074 6.80615 4.72154 6.93914 4.66827C7.07213 4.615 7.21438 4.58871 7.35762 4.59095H17.3772C17.4684 4.61381 17.5494 4.6665 17.6073 4.74064C17.6651 4.81478 17.6965 4.90613 17.6965 5.00017C17.6965 5.09422 17.6651 5.18556 17.6073 5.2597C17.5494 5.33385 17.4684 5.38653 17.3772 5.40939H7.35762C7.28859 5.41048 7.22269 5.43839 7.17387 5.48721C7.12505 5.53603 7.09715 5.60193 7.09606 5.67096V9.25692C7.09606 9.29126 7.10282 9.32528 7.11597 9.35701C7.12911 9.38875 7.14838 9.41758 7.17267 9.44187C7.19696 9.46616 7.22579 9.48542 7.25753 9.49857C7.28926 9.51171 7.32327 9.51848 7.35762 9.51848H16.6389C16.7011 9.50289 16.7661 9.50169 16.8288 9.51496C16.8916 9.52824 16.9505 9.55565 17.001 9.5951C17.0516 9.63455 17.0925 9.68501 17.1206 9.74265C17.1487 9.80028 17.1634 9.86357 17.1634 9.9277C17.1634 9.99183 17.1487 10.0551 17.1206 10.1128C17.0925 10.1704 17.0516 10.2208 17.001 10.2603C16.9505 10.2998 16.8916 10.3272 16.8288 10.3404C16.7661 10.3537 16.7011 10.3525 16.6389 10.3369H16.6221ZM10.1462 15.9184H6.68684C6.57495 15.9184 6.46764 15.8739 6.38853 15.7948C6.30941 15.7157 6.26496 15.6084 6.26496 15.4965V12.0371C6.26496 11.9252 6.30941 11.8179 6.38853 11.7388C6.46764 11.6597 6.57495 11.6152 6.68684 11.6152H10.1462C10.2581 11.6152 10.3654 11.6597 10.4445 11.7388C10.5237 11.8179 10.5681 11.9252 10.5681 12.0371V15.4965C10.5681 15.6084 10.5237 15.7157 10.4445 15.7948C10.3654 15.8739 10.2581 15.9184 10.1462 15.9184ZM7.09606 15.0999H9.73701V12.459H7.09606V15.0999ZM15.5505 15.9184H12.108C11.9961 15.9184 11.8888 15.8739 11.8096 15.7948C11.7305 15.7157 11.6861 15.6084 11.6861 15.4965V12.0371C11.6861 11.9252 11.7305 11.8179 11.8096 11.7388C11.8888 11.6597 11.9961 11.6152 12.108 11.6152H15.5674C15.6792 11.6152 15.7866 11.6597 15.8657 11.7388C15.9448 11.8179 15.9892 11.9252 15.9892 12.0371V15.4965C15.9893 15.5533 15.9778 15.6096 15.9556 15.6619C15.9333 15.7142 15.9007 15.7615 15.8598 15.8009C15.8188 15.8403 15.7703 15.871 15.7171 15.8912C15.664 15.9114 15.6073 15.9206 15.5505 15.9184ZM12.5003 15.0999H15.1413V12.459H12.5003V15.0999ZM20.9674 15.9184H17.508C17.3961 15.9184 17.2888 15.8739 17.2097 15.7948C17.1306 15.7157 17.0861 15.6084 17.0861 15.4965V12.0371C17.0861 11.9252 17.1306 11.8179 17.2097 11.7388C17.2888 11.6597 17.3961 11.6152 17.508 11.6152H17.7822C17.8724 11.6262 17.9567 11.6661 18.0224 11.7289C18.0881 11.7916 18.1318 11.8739 18.147 11.9635C18.1622 12.0532 18.148 12.1453 18.1066 12.2262C18.0652 12.3071 17.9988 12.3725 17.9172 12.4126V15.0788H20.5455V13.9819C20.5299 13.9197 20.5287 13.8548 20.542 13.792C20.5553 13.7293 20.5827 13.6704 20.6221 13.6199C20.6616 13.5693 20.712 13.5284 20.7697 13.5003C20.8273 13.4721 20.8906 13.4575 20.9547 13.4575C21.0189 13.4575 21.0822 13.4721 21.1398 13.5003C21.1974 13.5284 21.2479 13.5693 21.2873 13.6199C21.3268 13.6704 21.3542 13.7293 21.3675 13.792C21.3807 13.8548 21.3795 13.9197 21.3639 13.9819V15.5091C21.361 15.6146 21.3186 15.7151 21.2452 15.7908C21.1718 15.8666 21.0727 15.9121 20.9674 15.9184ZM10.1462 20.8754H6.68684C6.57495 20.8754 6.46764 20.831 6.38853 20.7519C6.30941 20.6727 6.26496 20.5654 6.26496 20.4535V16.9941C6.26496 16.8823 6.30941 16.775 6.38853 16.6958C6.46764 16.6167 6.57495 16.5723 6.68684 16.5723H10.1462C10.2581 16.5723 10.3654 16.6167 10.4445 16.6958C10.5237 16.775 10.5681 16.8823 10.5681 16.9941V20.4535C10.5681 20.5654 10.5237 20.6727 10.4445 20.7519C10.3654 20.831 10.2581 20.8754 10.1462 20.8754ZM7.09606 20.057H9.73701V17.416H7.09606V20.057ZM15.5505 20.8754H12.108C11.9961 20.8754 11.8888 20.831 11.8096 20.7519C11.7305 20.6727 11.6861 20.5654 11.6861 20.4535V16.9941C11.6861 16.8823 11.7305 16.775 11.8096 16.6958C11.8888 16.6167 11.9961 16.5723 12.108 16.5723H15.5674C15.6792 16.5723 15.7866 16.6167 15.8657 16.6958C15.9448 16.775 15.9892 16.8823 15.9892 16.9941V20.4535C15.9893 20.5104 15.9778 20.5667 15.9556 20.619C15.9333 20.6713 15.9007 20.7186 15.8598 20.758C15.8188 20.7974 15.7703 20.8281 15.7171 20.8483C15.664 20.8685 15.6073 20.8777 15.5505 20.8754ZM12.5003 20.057H15.1413V17.416H12.5003V20.057ZM20.9674 20.8754H17.508C17.3961 20.8754 17.2888 20.831 17.2097 20.7519C17.1306 20.6727 17.0861 20.5654 17.0861 20.4535V16.9941C17.0861 16.8823 17.1306 16.775 17.2097 16.6958C17.2888 16.6167 17.3961 16.5723 17.508 16.5723H20.9674C21.0793 16.5723 21.1866 16.6167 21.2657 16.6958C21.3448 16.775 21.3893 16.8823 21.3893 16.9941V20.4535C21.3893 20.5654 21.3448 20.6727 21.2657 20.7519C21.1866 20.831 21.0793 20.8754 20.9674 20.8754ZM17.9172 20.057H20.5455V17.416H17.9088L17.9172 20.057ZM10.1462 25.8283H6.68684C6.57495 25.8283 6.46764 25.7838 6.38853 25.7047C6.30941 25.6256 6.26496 25.5183 6.26496 25.4064V21.947C6.26496 21.8351 6.30941 21.7278 6.38853 21.6487C6.46764 21.5696 6.57495 21.5251 6.68684 21.5251H10.1462C10.2581 21.5251 10.3654 21.5696 10.4445 21.6487C10.5237 21.7278 10.5681 21.8351 10.5681 21.947V25.4064C10.5681 25.5183 10.5237 25.6256 10.4445 25.7047C10.3654 25.7838 10.2581 25.8283 10.1462 25.8283ZM7.09606 25.0098H9.73701V22.3689H7.09606V25.0098ZM15.5505 25.8283H12.108C11.9961 25.8283 11.8888 25.7838 11.8096 25.7047C11.7305 25.6256 11.6861 25.5183 11.6861 25.4064V21.947C11.6861 21.8351 11.7305 21.7278 11.8096 21.6487C11.8888 21.5696 11.9961 21.5251 12.108 21.5251H15.5674C15.6792 21.5251 15.7866 21.5696 15.8657 21.6487C15.9448 21.7278 15.9892 21.8351 15.9892 21.947V25.4064C15.9893 25.4632 15.9778 25.5195 15.9556 25.5718C15.9333 25.6241 15.9007 25.6714 15.8598 25.7108C15.8188 25.7502 15.7703 25.7809 15.7171 25.8011C15.664 25.8213 15.6073 25.8305 15.5505 25.8283ZM12.5003 25.0098H15.1413V22.3689H12.5003V25.0098ZM20.9674 25.8283H16.6642C16.5523 25.8283 16.445 25.7838 16.3659 25.7047C16.2868 25.6256 16.2424 25.5183 16.2424 25.4064V21.947C16.2424 21.8351 16.2868 21.7278 16.3659 21.6487C16.445 21.5696 16.5523 21.5251 16.6642 21.5251H20.9674C21.0793 21.5251 21.1866 21.5696 21.2657 21.6487C21.3448 21.7278 21.3893 21.8351 21.3893 21.947V25.4064C21.3893 25.5183 21.3448 25.6256 21.2657 25.7047C21.1866 25.7838 21.0793 25.8283 20.9674 25.8283ZM17.0819 25.0098H20.5455V22.3689H17.0735L17.0819 25.0098Z" fill="white"/>
<path d="M16.6221 10.3369H7.34075C7.05431 10.3369 6.77961 10.2231 6.57707 10.0206C6.37453 9.81806 6.26074 9.54335 6.26074 9.25692V5.67096C6.26072 5.5277 6.28921 5.38587 6.34454 5.25372C6.39986 5.12158 6.48093 5.00176 6.58301 4.90125C6.68509 4.80074 6.80615 4.72154 6.93914 4.66827C7.07213 4.615 7.21438 4.58871 7.35762 4.59095H17.3772C17.4684 4.61381 17.5494 4.6665 17.6073 4.74064C17.6651 4.81478 17.6965 4.90613 17.6965 5.00017C17.6965 5.09422 17.6651 5.18556 17.6073 5.2597C17.5494 5.33385 17.4684 5.38653 17.3772 5.40939H7.35762C7.28859 5.41048 7.22269 5.43839 7.17387 5.48721C7.12505 5.53603 7.09715 5.60193 7.09606 5.67096V9.25692C7.09606 9.29126 7.10282 9.32528 7.11597 9.35701C7.12911 9.38875 7.14838 9.41758 7.17267 9.44187C7.19696 9.46616 7.22579 9.48542 7.25753 9.49857C7.28926 9.51171 7.32327 9.51848 7.35762 9.51848H16.6389C16.7011 9.50289 16.7661 9.50169 16.8288 9.51496C16.8916 9.52824 16.9505 9.55565 17.001 9.5951C17.0516 9.63455 17.0925 9.68501 17.1206 9.74265C17.1487 9.80028 17.1634 9.86357 17.1634 9.9277C17.1634 9.99183 17.1487 10.0551 17.1206 10.1128C17.0925 10.1704 17.0516 10.2208 17.001 10.2603C16.9505 10.2998 16.8916 10.3272 16.8288 10.3404C16.7661 10.3537 16.7011 10.3525 16.6389 10.3369H16.6221ZM10.1462 15.9184H6.68684C6.57495 15.9184 6.46764 15.8739 6.38853 15.7948C6.30941 15.7157 6.26496 15.6084 6.26496 15.4965V12.0371C6.26496 11.9252 6.30941 11.8179 6.38853 11.7388C6.46764 11.6597 6.57495 11.6152 6.68684 11.6152H10.1462C10.2581 11.6152 10.3654 11.6597 10.4445 11.7388C10.5237 11.8179 10.5681 11.9252 10.5681 12.0371V15.4965C10.5681 15.6084 10.5237 15.7157 10.4445 15.7948C10.3654 15.8739 10.2581 15.9184 10.1462 15.9184ZM7.09606 15.0999H9.73701V12.459H7.09606V15.0999ZM15.5505 15.9184H12.108C11.9961 15.9184 11.8888 15.8739 11.8096 15.7948C11.7305 15.7157 11.6861 15.6084 11.6861 15.4965V12.0371C11.6861 11.9252 11.7305 11.8179 11.8096 11.7388C11.8888 11.6597 11.9961 11.6152 12.108 11.6152H15.5674C15.6792 11.6152 15.7866 11.6597 15.8657 11.7388C15.9448 11.8179 15.9892 11.9252 15.9892 12.0371V15.4965C15.9893 15.5533 15.9778 15.6096 15.9556 15.6619C15.9333 15.7142 15.9007 15.7615 15.8598 15.8009C15.8188 15.8403 15.7703 15.871 15.7171 15.8912C15.664 15.9114 15.6073 15.9206 15.5505 15.9184ZM12.5003 15.0999H15.1413V12.459H12.5003V15.0999ZM20.9674 15.9184H17.508C17.3961 15.9184 17.2888 15.8739 17.2097 15.7948C17.1306 15.7157 17.0861 15.6084 17.0861 15.4965V12.0371C17.0861 11.9252 17.1306 11.8179 17.2097 11.7388C17.2888 11.6597 17.3961 11.6152 17.508 11.6152H17.7822C17.8724 11.6262 17.9567 11.6661 18.0224 11.7289C18.0881 11.7916 18.1318 11.8739 18.147 11.9635C18.1622 12.0532 18.148 12.1453 18.1066 12.2262C18.0652 12.3071 17.9988 12.3725 17.9172 12.4126V15.0788H20.5455V13.9819C20.5299 13.9197 20.5287 13.8548 20.542 13.792C20.5553 13.7293 20.5827 13.6704 20.6221 13.6199C20.6616 13.5693 20.712 13.5284 20.7697 13.5003C20.8273 13.4721 20.8906 13.4575 20.9547 13.4575C21.0189 13.4575 21.0822 13.4721 21.1398 13.5003C21.1974 13.5284 21.2479 13.5693 21.2873 13.6199C21.3268 13.6704 21.3542 13.7293 21.3675 13.792C21.3807 13.8548 21.3795 13.9197 21.3639 13.9819V15.5091C21.361 15.6146 21.3186 15.7151 21.2452 15.7908C21.1718 15.8666 21.0727 15.9121 20.9674 15.9184ZM10.1462 20.8754H6.68684C6.57495 20.8754 6.46764 20.831 6.38853 20.7519C6.30941 20.6727 6.26496 20.5654 6.26496 20.4535V16.9941C6.26496 16.8823 6.30941 16.775 6.38853 16.6958C6.46764 16.6167 6.57495 16.5723 6.68684 16.5723H10.1462C10.2581 16.5723 10.3654 16.6167 10.4445 16.6958C10.5237 16.775 10.5681 16.8823 10.5681 16.9941V20.4535C10.5681 20.5654 10.5237 20.6727 10.4445 20.7519C10.3654 20.831 10.2581 20.8754 10.1462 20.8754ZM7.09606 20.057H9.73701V17.416H7.09606V20.057ZM15.5505 20.8754H12.108C11.9961 20.8754 11.8888 20.831 11.8096 20.7519C11.7305 20.6727 11.6861 20.5654 11.6861 20.4535V16.9941C11.6861 16.8823 11.7305 16.775 11.8096 16.6958C11.8888 16.6167 11.9961 16.5723 12.108 16.5723H15.5674C15.6792 16.5723 15.7866 16.6167 15.8657 16.6958C15.9448 16.775 15.9892 16.8823 15.9892 16.9941V20.4535C15.9893 20.5104 15.9778 20.5667 15.9556 20.619C15.9333 20.6713 15.9007 20.7186 15.8598 20.758C15.8188 20.7974 15.7703 20.8281 15.7171 20.8483C15.664 20.8685 15.6073 20.8777 15.5505 20.8754ZM12.5003 20.057H15.1413V17.416H12.5003V20.057ZM20.9674 20.8754H17.508C17.3961 20.8754 17.2888 20.831 17.2097 20.7519C17.1306 20.6727 17.0861 20.5654 17.0861 20.4535V16.9941C17.0861 16.8823 17.1306 16.775 17.2097 16.6958C17.2888 16.6167 17.3961 16.5723 17.508 16.5723H20.9674C21.0793 16.5723 21.1866 16.6167 21.2657 16.6958C21.3448 16.775 21.3893 16.8823 21.3893 16.9941V20.4535C21.3893 20.5654 21.3448 20.6727 21.2657 20.7519C21.1866 20.831 21.0793 20.8754 20.9674 20.8754ZM17.9172 20.057H20.5455V17.416H17.9088L17.9172 20.057ZM10.1462 25.8283H6.68684C6.57495 25.8283 6.46764 25.7838 6.38853 25.7047C6.30941 25.6256 6.26496 25.5183 6.26496 25.4064V21.947C6.26496 21.8351 6.30941 21.7278 6.38853 21.6487C6.46764 21.5696 6.57495 21.5251 6.68684 21.5251H10.1462C10.2581 21.5251 10.3654 21.5696 10.4445 21.6487C10.5237 21.7278 10.5681 21.8351 10.5681 21.947V25.4064C10.5681 25.5183 10.5237 25.6256 10.4445 25.7047C10.3654 25.7838 10.2581 25.8283 10.1462 25.8283ZM7.09606 25.0098H9.73701V22.3689H7.09606V25.0098ZM15.5505 25.8283H12.108C11.9961 25.8283 11.8888 25.7838 11.8096 25.7047C11.7305 25.6256 11.6861 25.5183 11.6861 25.4064V21.947C11.6861 21.8351 11.7305 21.7278 11.8096 21.6487C11.8888 21.5696 11.9961 21.5251 12.108 21.5251H15.5674C15.6792 21.5251 15.7866 21.5696 15.8657 21.6487C15.9448 21.7278 15.9892 21.8351 15.9892 21.947V25.4064C15.9893 25.4632 15.9778 25.5195 15.9556 25.5718C15.9333 25.6241 15.9007 25.6714 15.8598 25.7108C15.8188 25.7502 15.7703 25.7809 15.7171 25.8011C15.664 25.8213 15.6073 25.8305 15.5505 25.8283ZM12.5003 25.0098H15.1413V22.3689H12.5003V25.0098ZM20.9674 25.8283H16.6642C16.5523 25.8283 16.445 25.7838 16.3659 25.7047C16.2868 25.6256 16.2424 25.5183 16.2424 25.4064V21.947C16.2424 21.8351 16.2868 21.7278 16.3659 21.6487C16.445 21.5696 16.5523 21.5251 16.6642 21.5251H20.9674C21.0793 21.5251 21.1866 21.5696 21.2657 21.6487C21.3448 21.7278 21.3893 21.8351 21.3893 21.947V25.4064C21.3893 25.5183 21.3448 25.6256 21.2657 25.7047C21.1866 25.7838 21.0793 25.8283 20.9674 25.8283ZM17.0819 25.0098H20.5455V22.3689H17.0735L17.0819 25.0098Z" stroke="white" stroke-width="0.2" mask="url(#path-3-outside-1_4173_4718)"/>
<path d="M22.2336 14.5798H22.2337C23.9081 14.5786 25.5137 13.913 26.6977 12.7289C27.8817 11.5449 28.5474 9.93937 28.5485 8.26491V8.26488C28.5485 7.01592 28.1781 5.795 27.4843 4.75652C26.7904 3.71805 25.8041 2.90865 24.6502 2.43069C23.4963 1.95274 22.2266 1.82768 21.0017 2.07134C19.7767 2.315 18.6515 2.91644 17.7683 3.79959C16.8852 4.68274 16.2838 5.80794 16.0401 7.03291C15.7964 8.25788 15.9215 9.52759 16.3994 10.6815C16.8774 11.8354 17.6868 12.8216 18.7253 13.5155C19.7637 14.2094 20.9847 14.5798 22.2336 14.5798ZM19.2351 3.78242C20.1226 3.18927 21.1661 2.87267 22.2336 2.87266C23.6638 2.87377 25.0351 3.44211 26.0468 4.453C27.0585 5.46389 27.6279 6.83479 27.6301 8.26496C27.6309 9.33244 27.3151 10.3762 26.7226 11.2642C26.1302 12.1521 25.2877 12.8445 24.3017 13.2536C23.3157 13.6626 22.2305 13.7701 21.1834 13.5624C20.1363 13.3546 19.1744 12.841 18.4193 12.0864C17.6641 11.3319 17.1498 10.3704 16.9412 9.32343C16.7326 8.27651 16.8393 7.19125 17.2476 6.20494C17.6559 5.21863 18.3476 4.37557 19.2351 3.78242Z" fill="white" stroke="white" stroke-width="0.1"/>
<path d="M20.9556 11.1728L20.9552 11.1743H20.9678H23.132H23.1446V11.1744L23.1472 11.1743C23.5814 11.1522 23.9905 10.9643 24.2901 10.6491C24.5896 10.334 24.7567 9.91587 24.7567 9.4811C24.7567 9.04633 24.5896 8.62818 24.2901 8.31307C23.9905 7.99795 23.5814 7.80996 23.1472 7.78795L23.1472 7.78789H23.1446H20.9678V7.78634L20.9556 7.78939C20.8536 7.81496 20.763 7.87389 20.6983 7.95682C20.6336 8.03975 20.5984 8.14192 20.5984 8.24711C20.5984 8.3523 20.6336 8.45447 20.6983 8.5374C20.763 8.62033 20.8536 8.67926 20.9556 8.70483L20.9552 8.70633H20.9678H23.1392C23.3145 8.74537 23.4714 8.84272 23.5843 8.98253C23.6983 9.12371 23.7604 9.29967 23.7604 9.4811C23.7604 9.66254 23.6983 9.8385 23.5843 9.97968C23.4714 10.1195 23.3145 10.2168 23.1392 10.2559H20.9678V10.2543L20.9556 10.2574C20.8536 10.2829 20.763 10.3419 20.6983 10.4248C20.6336 10.5077 20.5984 10.6099 20.5984 10.7151C20.5984 10.8203 20.6336 10.9225 20.6983 11.0054C20.763 11.0883 20.8536 11.1472 20.9556 11.1728Z" fill="white" stroke="white" stroke-width="0.1"/>
<path d="M21.4355 11.896V11.8961L21.8321 11.4199H21.8821V11.4197V5.09178H21.8837L21.8806 5.07962C21.855 4.97759 21.7961 4.88703 21.7132 4.82232C21.6303 4.75761 21.5281 4.72246 21.4229 4.72246C21.3177 4.72246 21.2155 4.75761 21.1326 4.82232C21.0497 4.88703 20.9907 4.97759 20.9652 5.07962L20.9637 5.07925V5.09178V11.4242C20.9637 11.5493 21.0134 11.6693 21.1019 11.7578C21.1904 11.8463 21.3104 11.896 21.4355 11.896Z" fill="white" stroke="white" stroke-width="0.1"/>
</g>
<defs>
<filter id="filter0_d_4173_4718" x="0.900391" y="0.900391" width="31.6982" height="35.2002" filterUnits="userSpaceOnUse" color-interpolation-filters="sRGB">
<feFlood flood-opacity="0" result="BackgroundImageFix"/>
<feColorMatrix in="SourceAlpha" type="matrix" values="0 0 0 0 0 0 0 0 0 0 0 0 0 0 0 0 0 0 127 0" result="hardAlpha"/>
<feOffset dy="4"/>
<feGaussianBlur stdDeviation="2"/>
<feComposite in2="hardAlpha" operator="out"/>
<feColorMatrix type="matrix" values="0 0 0 0 0 0 0 0 0 0 0 0 0 0 0 0 0 0 0.25 0"/>
<feBlend mode="normal" in2="BackgroundImageFix" result="effect1_dropShadow_4173_4718"/>
<feBlend mode="normal" in="SourceGraphic" in2="effect1_dropShadow_4173_4718" result="shape"/>
</filter>
</defs>
</svg>
