<svg width="20" height="20" viewBox="0 0 20 20" fill="none" xmlns="http://www.w3.org/2000/svg">
<path d="M2.7 19.2C1.98392 19.2 1.29716 18.9155 0.790812 18.4092C0.284463 17.9028 0 17.2161 0 16.5V2.7C0 1.98392 0.284463 1.29716 0.790812 0.790813C1.29716 0.284465 1.98392 1.49626e-06 2.7 1.49626e-06H11.4C11.6387 1.49626e-06 11.8676 0.0948224 12.0364 0.263605C12.2052 0.432388 12.3 0.661307 12.3 0.900001C12.3 1.1387 12.2052 1.36761 12.0364 1.5364C11.8676 1.70518 11.6387 1.8 11.4 1.8H2.7C2.58181 1.8 2.46478 1.82328 2.35558 1.86851C2.24639 1.91374 2.14718 1.98003 2.0636 2.06361C1.98003 2.14718 1.91374 2.24639 1.86851 2.35559C1.82328 2.46478 1.8 2.58181 1.8 2.7V16.5C1.8 16.6182 1.82328 16.7352 1.86851 16.8444C1.91374 16.9536 1.98003 17.0528 2.0636 17.1364C2.14718 17.22 2.24639 17.2863 2.35558 17.3315C2.46478 17.3767 2.58181 17.4 2.7 17.4H16.5C16.7387 17.4 16.9676 17.3052 17.1364 17.1364C17.3052 16.9676 17.4 16.7387 17.4 16.5V8.1C17.4 7.86131 17.4948 7.63239 17.6636 7.4636C17.8324 7.29482 18.0613 7.2 18.3 7.2C18.5387 7.2 18.7676 7.29482 18.9364 7.4636C19.1052 7.63239 19.2 7.86131 19.2 8.1V16.5C19.2 17.2161 18.9155 17.9028 18.4092 18.4092C17.9028 18.9155 17.2161 19.2 16.5 19.2H2.7ZM4.671 14L5.305 10.287C5.30422 10.2844 5.30422 10.2816 5.305 10.279L9.545 6.039L15.062 0.527001C15.2288 0.359678 15.4271 0.226981 15.6454 0.136539C15.8637 0.046098 16.0977 -0.00030375 16.334 1.49626e-06C16.572 -0.000188302 16.8078 0.0465204 17.0277 0.13746C17.2477 0.228399 17.4476 0.361786 17.616 0.530001L18.143 1.057L18.673 1.587C19.0104 1.92454 19.1999 2.38225 19.1999 2.8595C19.1999 3.33675 19.0104 3.79446 18.673 4.132L13.157 9.649L8.919 13.889C8.91638 13.8897 8.91362 13.8897 8.911 13.889L5.198 14.522C5.17224 14.5265 5.14615 14.5289 5.12 14.529C5.05404 14.5288 4.98889 14.5144 4.92907 14.4866C4.86924 14.4588 4.81615 14.4184 4.77346 14.3681C4.73078 14.3178 4.69951 14.2588 4.68182 14.1953C4.66413 14.1317 4.66044 14.0651 4.671 14ZM10.82 7.315L6.98 11.155L6.761 12.435L8.041 12.216L11.881 8.376L17.4 2.861L16.87 2.331L16.34 1.801L10.82 7.315Z" fill="#1346FD"/>
</svg>
