<svg width="41" height="35" viewBox="0 0 41 35" fill="none" xmlns="http://www.w3.org/2000/svg">
<path d="M38.4723 0.761721H11.5488C11.3281 0.761549 11.1096 0.801846 10.9057 0.880312C10.7018 0.958779 10.5164 1.07388 10.3603 1.21904C10.2041 1.3642 10.0802 1.53657 9.99562 1.72633C9.91101 1.91608 9.86737 2.11949 9.86719 2.32495V9.29321L25.4694 13.559L40.1553 9.29321V2.32495C40.1551 2.11938 40.1114 1.91586 40.0268 1.72602C39.9421 1.53618 39.818 1.36375 39.6617 1.21857C39.5054 1.0734 39.3199 0.958324 39.1158 0.879935C38.9118 0.801546 38.6931 0.761376 38.4723 0.761721Z" fill="#41A5EE"/>
<path d="M40.1553 9.29504H9.86719V17.8265L25.4694 20.386L40.1553 17.8265V9.29504Z" fill="#2B7CD3"/>
<path d="M9.86719 17.8234V26.3549L24.5517 28.0612L40.1553 26.3549V17.8234H9.86719Z" fill="#185ABD"/>
<path d="M11.5488 34.8882H38.4709C38.6918 34.8887 38.9106 34.8487 39.1149 34.7703C39.3191 34.692 39.5048 34.577 39.6612 34.4318C39.8177 34.2866 39.9418 34.1141 40.0266 33.9242C40.1114 33.7343 40.1551 33.5306 40.1553 33.3249V26.3567H9.86719V33.3249C9.86737 33.5304 9.91101 33.7338 9.99562 33.9236C10.0802 34.1133 10.2041 34.2857 10.3603 34.4309C10.5164 34.576 10.7018 34.6911 10.9057 34.7696C11.1096 34.8481 11.3281 34.8884 11.5488 34.8882Z" fill="#103F91"/>
<path opacity="0.1" d="M21.0335 7.58594H9.86719V28.9147H21.0335C21.4785 28.9126 21.9046 28.7474 22.2197 28.4548C22.5347 28.1622 22.7132 27.7657 22.7165 27.3514V9.14917C22.7132 8.73485 22.5347 8.33844 22.2197 8.04584C21.9046 7.75323 21.4785 7.588 21.0335 7.58594Z" fill="black"/>
<path opacity="0.2" d="M20.1159 8.44165H9.86719V29.7704H20.1159C20.5609 29.7683 20.987 29.6031 21.3021 29.3105C21.6171 29.0179 21.7956 28.6215 21.7989 28.2071V10.0049C21.7956 9.59056 21.6171 9.19416 21.3021 8.90155C20.987 8.60894 20.5609 8.44371 20.1159 8.44165Z" fill="black"/>
<path opacity="0.2" d="M20.1159 8.44165H9.86719V28.0641H20.1159C20.5609 28.062 20.987 27.8968 21.3021 27.6042C21.6171 27.3116 21.7956 26.9152 21.7989 26.5008V10.0049C21.7956 9.59056 21.6171 9.19416 21.3021 8.90155C20.987 8.60894 20.5609 8.44371 20.1159 8.44165Z" fill="black"/>
<path opacity="0.2" d="M19.1983 8.44165H9.86719V28.0641H19.1983C19.6433 28.062 20.0694 27.8968 20.3844 27.6042C20.6995 27.3116 20.878 26.9152 20.8813 26.5008V10.0049C20.878 9.59056 20.6995 9.19416 20.3844 8.90155C20.0694 8.60894 19.6433 8.44371 19.1983 8.44165Z" fill="black"/>
<path d="M2.37049 8.44165H19.1975C19.6433 8.4413 20.0709 8.60576 20.3865 8.89889C20.7021 9.19201 20.8798 9.58982 20.8805 10.0049V25.6477C20.8798 26.0628 20.7021 26.4606 20.3865 26.7537C20.0709 27.0468 19.6433 27.2113 19.1975 27.2109H2.37049C2.14973 27.2113 1.93106 27.1711 1.72697 27.0927C1.52289 27.0143 1.3374 26.8993 1.1811 26.7541C1.02481 26.6089 0.900765 26.4365 0.816069 26.2466C0.731374 26.0568 0.687685 25.8533 0.6875 25.6477V10.0049C0.687685 9.79931 0.731374 9.59579 0.816069 9.40595C0.900765 9.21612 1.02481 9.04368 1.1811 8.8985C1.3374 8.75333 1.52289 8.63826 1.72697 8.55987C1.93106 8.48148 2.14973 8.44131 2.37049 8.44165Z" fill="url(#paint0_linear_4689_11296)"/>
<path d="M7.59328 20.4354C7.6257 20.6769 7.64826 20.8869 7.65812 21.0667H7.69759C7.71168 20.8961 7.74269 20.69 7.78921 20.4498C7.83572 20.2096 7.8766 20.0062 7.91466 19.8395L9.68363 12.7426H11.9727L13.8051 19.7332C13.9118 20.1656 13.9881 20.604 14.0335 21.0457H14.0645C14.0981 20.6157 14.1617 20.1883 14.2548 19.766L15.7193 12.7334H17.8012L15.2302 22.9029H12.7959L11.0523 16.1749C11.0015 15.9806 10.9442 15.7277 10.8803 15.4162C10.8164 15.1047 10.777 14.8772 10.7619 14.7337H10.7323C10.7126 14.8991 10.6731 15.1445 10.6139 15.47C10.5547 15.7969 10.5082 16.0371 10.473 16.1946L8.83368 22.9069H6.35853L3.77344 12.7426H5.88774L7.48193 19.8539C7.52951 20.0459 7.56667 20.2399 7.59328 20.4354Z" fill="white"/>
<defs>
<linearGradient id="paint0_linear_4689_11296" x1="4.20289" y1="7.21312" x2="16.0082" y2="29.1691" gradientUnits="userSpaceOnUse">
<stop stop-color="#2368C4"/>
<stop offset="0.5" stop-color="#1A5DBE"/>
<stop offset="1" stop-color="#1146AC"/>
</linearGradient>
</defs>
</svg>
