<svg width="29" height="23" viewBox="0 0 29 23" fill="none" xmlns="http://www.w3.org/2000/svg">
<path d="M21.75 20.0511H2.9V6.78101H6.66275C6.66275 6.78101 7.6618 5.4599 9.80925 3.8321H1.45C1.06544 3.8321 0.696623 3.98745 0.424695 4.26396C0.152767 4.54048 0 4.91551 0 5.30656L0 21.5255C0 21.9166 0.152767 22.2916 0.424695 22.5681C0.696623 22.8447 1.06544 23 1.45 23H23.2C23.5846 23 23.9534 22.8447 24.2253 22.5681C24.4972 22.2916 24.65 21.9166 24.65 21.5255V16.0022L21.75 18.4277V20.0511ZM19.3735 9.80364V15.0394L29 7.37079L19.3735 0V4.61651C7.685 4.61651 7.685 16.365 7.685 16.365C10.9939 10.8387 13.0297 9.80364 19.3735 9.80364Z" fill="white"/>
</svg>
