<svg width="26" height="27" viewBox="0 0 26 27" fill="none" xmlns="http://www.w3.org/2000/svg">
<path d="M25.3576 19.2479L22.7971 18L14.0647 22.2533C13.3952 22.5796 12.6048 22.5796 11.9353 22.2533L3.20285 18L0.642431 19.2479C0.449134 19.342 0.286799 19.4855 0.173409 19.6625C0.0600192 19.8396 0 20.0433 0 20.251C0 20.4587 0.0600192 20.6624 0.173409 20.8394C0.286799 21.0165 0.449134 21.16 0.642431 21.2541L11.9353 26.7553C12.6048 27.0816 13.3952 27.0816 14.0647 26.7553L25.3576 21.2541C25.5509 21.16 25.7132 21.0165 25.8266 20.8394C25.94 20.6624 26 20.4587 26 20.251C26 20.0433 25.94 19.8396 25.8266 19.6625C25.7132 19.4855 25.5509 19.342 25.3576 19.2479Z" fill="white"/>
<path d="M25.3576 12.2479L22.7971 11L14.0647 15.2533C13.3952 15.5796 12.6048 15.5796 11.9353 15.2533L3.20285 11L0.642431 12.2479C0.449134 12.342 0.286799 12.4855 0.173409 12.6625C0.0600192 12.8396 0 13.0433 0 13.251C0 13.4587 0.0600192 13.6624 0.173409 13.8394C0.286799 14.0165 0.449134 14.16 0.642431 14.2541L11.9353 19.7553C12.6048 20.0816 13.3952 20.0816 14.0647 19.7553L25.3576 14.2541C25.5509 14.16 25.7132 14.0165 25.8266 13.8394C25.94 13.6624 26 13.4587 26 13.251C26 13.0433 25.94 12.8396 25.8266 12.6625C25.7132 12.4855 25.5509 12.342 25.3576 12.2479Z" fill="white"/>
<path d="M11.9365 0.235668L0.642431 5.53387C0.449133 5.6245 0.286799 5.76273 0.173409 5.93325C0.0600192 6.10377 0 6.29992 0 6.49998C0 6.70004 0.0600192 6.89619 0.173409 7.06672C0.286799 7.23724 0.449133 7.37547 0.642431 7.4661L11.9353 12.7643C12.6048 13.0786 13.3952 13.0786 14.0647 12.7643L25.3576 7.4661C25.5509 7.37547 25.7132 7.23724 25.8266 7.06672C25.94 6.89619 26 6.70004 26 6.49998C26 6.29992 25.94 6.10377 25.8266 5.93325C25.7132 5.76273 25.5509 5.6245 25.3576 5.53387L14.0647 0.235668C13.7351 0.0807561 13.3705 0 13.0006 0C12.6307 0 12.2661 0.0807561 11.9365 0.235668Z" fill="#1346FD"/>
</svg>
