<svg width="21" height="24" viewBox="0 0 21 24" fill="none" xmlns="http://www.w3.org/2000/svg">
<path d="M4.77344 13.452H12.4098V15.1335H4.77344V13.452ZM4.77344 9.24829H16.228V10.9298H4.77344V9.24829ZM4.77344 17.6558H9.54616V19.3373H4.77344V17.6558Z" fill="black"/>
<path d="M19.0909 2.52225H16.2273V1.6815C16.2273 1.23554 16.0261 0.807842 15.6681 0.4925C15.3101 0.177157 14.8245 0 14.3182 0H6.68182C6.1755 0 5.68991 0.177157 5.33189 0.4925C4.97386 0.807842 4.77273 1.23554 4.77273 1.6815V2.52225H1.90909C1.40277 2.52225 0.917184 2.69941 0.55916 3.01475C0.201136 3.33009 0 3.75779 0 4.20375V21.8595C0 22.3055 0.201136 22.7332 0.55916 23.0485C0.917184 23.3638 1.40277 23.541 1.90909 23.541H19.0909C19.5972 23.541 20.0828 23.3638 20.4408 23.0485C20.7989 22.7332 21 22.3055 21 21.8595V4.20375C21 3.75779 20.7989 3.33009 20.4408 3.01475C20.0828 2.69941 19.5972 2.52225 19.0909 2.52225ZM6.68182 1.6815H14.3182V5.0445H6.68182V1.6815ZM19.0909 21.8595H1.90909V4.20375H4.77273V6.726H16.2273V4.20375H19.0909V21.8595Z" fill="black"/>
</svg>
