<svg width="26" height="22" viewBox="0 0 26 22" fill="none" xmlns="http://www.w3.org/2000/svg">
<path d="M3.06571 15.1146C4.86689 16.6404 7.2655 17.5563 9.80966 17.6899C12.3538 17.8235 14.8679 17.1654 16.8783 15.8397L23.7956 21.6911C24.0409 21.8916 24.3695 22.0025 24.7106 22C25.0516 21.9975 25.3779 21.8817 25.619 21.6777C25.8602 21.4737 25.997 21.1978 26 20.9093C26.0029 20.6208 25.8718 20.3428 25.6349 20.1353L18.7175 14.2839C20.3542 12.5071 21.1281 10.269 20.8812 8.02619C20.6342 5.78336 19.3852 3.70467 17.3888 2.21405C15.3924 0.723431 12.7989 -0.0668296 10.1374 0.00443236C7.47586 0.0756943 4.9467 1.00311 3.06571 2.59755C2.09379 3.41928 1.3228 4.39494 0.796772 5.46881C0.270747 6.54267 0 7.69368 0 8.85608C0 10.0185 0.270747 11.1695 0.796772 12.2434C1.3228 13.3172 2.09379 14.2929 3.06571 15.1146ZM4.90496 4.15558C6.19083 3.06787 7.88277 2.39095 9.6925 2.24016C11.5022 2.08937 13.3178 2.47403 14.8298 3.32861C16.3419 4.18319 17.4569 5.45481 17.9848 6.92682C18.5128 8.39883 18.4211 9.98015 17.7253 11.4014C17.0295 12.8226 15.7727 13.9958 14.169 14.721C12.5653 15.4463 10.714 15.6787 8.93039 15.3788C7.1468 15.0789 5.54134 14.2651 4.38752 13.0761C3.2337 11.8871 2.60292 10.3965 2.60265 8.85828C2.59908 7.98417 2.80075 7.11816 3.19598 6.3105C3.5912 5.50285 4.17209 4.76962 4.90496 4.15338V4.15558Z" fill="black"/>
</svg>
