<svg width="21" height="29" viewBox="0 0 21 29" fill="none" xmlns="http://www.w3.org/2000/svg">
<path d="M10.503 29C10.4217 29 10.3355 28.9854 10.259 28.9513C10.0867 28.8831 9.94795 28.7467 9.87139 28.5713L7.13918 21.9756L1.18189 28.3716C0.990489 28.5811 0.689036 28.6444 0.430647 28.5421C0.172259 28.4349 0 28.1816 0 27.8942V0.69778C0 0.420116 0.157904 0.17168 0.406722 0.0596401C0.655541 -0.0523996 0.942639 -0.00368668 1.14361 0.181422L20.7763 18.4488C20.9821 18.6388 21.0539 18.9408 20.9582 19.2087C20.8625 19.4766 20.6137 19.6569 20.3361 19.6617L13.5175 19.8761L16.2641 25.5365C16.3455 25.707 16.355 25.897 16.2976 26.0772C16.2354 26.2526 16.1062 26.3987 15.9435 26.4767L10.7949 28.9318C10.704 28.9805 10.6035 29 10.503 29ZM7.36407 20.0271C7.40235 20.0271 7.44541 20.0319 7.48848 20.0368C7.71816 20.0807 7.90956 20.2365 7.99569 20.4509L10.8571 27.3584L14.7281 25.5122L11.8189 19.5156C11.7136 19.3013 11.728 19.0528 11.8476 18.8482C11.9672 18.6436 12.1825 18.517 12.4122 18.5121L18.6087 18.3173L1.37329 2.28095V26.1454L6.86643 20.2463C6.99563 20.105 7.17746 20.0271 7.36407 20.0271Z" fill="white"/>
</svg>
