<svg width="22" height="25" viewBox="0 0 22 25" fill="none" xmlns="http://www.w3.org/2000/svg">
<path d="M5.07692 4.1912C5.07692 3.27699 5.43352 2.40021 6.06825 1.75376C6.70299 1.10731 7.56388 0.744141 8.46154 0.744141H14.5302C15.2032 0.744744 15.8484 1.01752 16.324 1.50249L21.2571 6.52487C21.7326 7.00952 21.9999 7.66663 22 8.35181V21.4265C22 22.3407 21.6434 23.2175 21.0087 23.864C20.3739 24.5104 19.513 24.8736 18.6154 24.8736H12.9682C13.6499 24.3844 14.2646 23.8048 14.7958 23.1501H18.6154C19.0642 23.1501 19.4947 22.9685 19.812 22.6452C20.1294 22.322 20.3077 21.8836 20.3077 21.4265V9.3618H16.0769C15.4037 9.3618 14.758 9.08942 14.282 8.60459C13.8059 8.11975 13.5385 7.46217 13.5385 6.7765V2.46767H8.46154C8.01271 2.46767 7.58227 2.64926 7.2649 2.97248C6.94753 3.29571 6.76923 3.7341 6.76923 4.1912V7.67619C6.19664 7.72882 5.6301 7.83556 5.07692 7.99504V4.1912ZM16.0769 7.63827H19.9574L15.2308 2.82444V6.7765C15.2308 7.00506 15.3199 7.22425 15.4786 7.38586C15.6373 7.54748 15.8525 7.63827 16.0769 7.63827ZM7.61539 24.8736C8.61545 24.8736 9.60573 24.673 10.5297 24.2832C11.4536 23.8934 12.2931 23.3221 13.0003 22.6019C13.7074 21.8817 14.2684 21.0267 14.6511 20.0857C15.0338 19.1448 15.2308 18.1362 15.2308 17.1177C15.2308 16.0992 15.0338 15.0906 14.6511 14.1496C14.2684 13.2087 13.7074 12.3537 13.0003 11.6334C12.2931 10.9132 11.4536 10.342 10.5297 9.95218C9.60573 9.56241 8.61545 9.3618 7.61539 9.3618C5.59566 9.3618 3.65866 10.1789 2.23049 11.6334C0.802333 13.088 0 15.0607 0 17.1177C0 19.1747 0.802333 21.1474 2.23049 22.6019C3.65866 24.0565 5.59566 24.8736 7.61539 24.8736ZM11.5991 16.5076C11.758 16.6694 11.8472 16.8889 11.8472 17.1177C11.8472 17.3465 11.758 17.566 11.5991 17.7278C11.4402 17.8896 11.2247 17.9806 11 17.9806C10.7753 17.9806 10.5598 17.8896 10.4009 17.7278L8.46154 15.7509V20.5648C8.46154 20.7933 8.37239 21.0125 8.21371 21.1741C8.05502 21.3357 7.8398 21.4265 7.61539 21.4265C7.39097 21.4265 7.17575 21.3357 7.01706 21.1741C6.85838 21.0125 6.76923 20.7933 6.76923 20.5648V15.7509L4.82985 17.7278C4.67096 17.8896 4.45547 17.9806 4.23077 17.9806C4.00607 17.9806 3.79058 17.8896 3.63169 17.7278C3.47281 17.566 3.38355 17.3465 3.38355 17.1177C3.38355 16.8889 3.47281 16.6694 3.63169 16.5076L7.01631 13.0605C7.17395 12.9001 7.38746 12.8096 7.61031 12.8089H7.62046C7.8411 12.8099 8.05255 12.899 8.20938 13.0571L8.21446 13.0622L11.5991 16.5093V16.5076Z" fill="white"/>
</svg>
