<svg width="65" height="830" viewBox="0 0 65 830" fill="none" xmlns="http://www.w3.org/2000/svg">
<circle cx="32.5" cy="32.5" r="32.5" fill="#3E3E3E" fill-opacity="0.87"/>
<path d="M35.5434 30.5H32.5V27.4566L43.0665 16.89L46.11 19.9335L35.5434 30.5ZM49.3539 15.9814C49.5487 16.1762 49.5487 16.4947 49.3539 16.6895L47.8772 18.1662L44.8338 15.1228L46.3105 13.6461C46.5053 13.4513 46.8238 13.4513 47.0186 13.6461L49.3539 15.9814Z" fill="white" stroke="white"/>
<path d="M13 38L14.3125 38.0014L44.4875 38.0327L45.8012 38.0341L45.8044 35.0116L44.4907 35.0102L14.3156 34.9788L13.0031 34.9775L13 38Z" fill="white"/>
<path d="M10.182 36.4981L15.2241 41.738L15.9808 42.5242L17.5392 40.9964L16.7825 40.2102L13.2527 36.5427L16.8854 32.9823L17.6646 32.2184L16.1513 30.646L15.3721 31.4099L10.182 36.4981Z" fill="white"/>
<path d="M46.0506 36.483C46.0229 38.3932 47.5583 39.9897 49.451 40.0172C51.344 40.0447 52.926 38.4935 52.9537 36.5832C52.9815 34.6727 51.4449 33.0776 49.5522 33.0501C47.6598 33.0226 46.0783 34.5725 46.0506 36.483ZM48.3531 36.5164C48.3626 35.8635 48.872 35.3645 49.5185 35.3739C50.1657 35.3833 50.6607 35.8968 50.6512 36.5498C50.6418 37.2019 50.1317 37.7028 49.4848 37.6934C48.8386 37.684 48.3436 37.1685 48.3531 36.5164Z" fill="#00AEEF"/>
<circle cx="32.5" cy="117.5" r="32.5" fill="#3E3E3E" fill-opacity="0.87"/>
<path d="M16.2702 129.255C16.3525 129.303 16.4464 129.336 16.5456 129.354C16.6449 129.371 16.7474 129.371 16.8465 129.354L27.1769 127.371L37.4755 131.657L37.9373 131.661L48.5155 129.641C48.6555 129.609 48.7791 129.542 48.8689 129.45C48.9587 129.358 49.0101 129.245 49.0156 129.127L49.2132 110.002C49.2116 109.92 49.1876 109.839 49.1427 109.765C49.0979 109.691 49.0333 109.626 48.9537 109.574C48.8397 109.504 48.7015 109.466 48.559 109.463L48.394 109.462L38.0637 111.445L27.7651 107.159L27.7486 107.159L27.6335 107.117L27.3037 107.114L16.7255 109.134C16.5842 109.165 16.4591 109.231 16.3689 109.324C16.2787 109.416 16.2283 109.53 16.2253 109.648L16.0272 128.826C16.0289 128.907 16.0513 128.987 16.0932 129.061C16.135 129.135 16.1953 129.201 16.2702 129.255ZM47.7 128.741L38.4441 130.509L38.6308 112.435L47.8867 110.668L47.7 128.741ZM28.1139 108.52L37.3121 112.342L37.1265 130.309L27.9283 126.487L28.1139 108.52ZM17.5404 110.088L26.7963 108.32L26.6096 126.393L17.3537 128.161L17.5404 110.088Z" fill="white"/>
<path d="M32.2212 106.775V106.571L32.0216 106.53C29.8636 106.086 28.25 104.194 28.25 101.938C28.25 99.3561 30.3779 97.25 33 97.25C35.6221 97.25 37.75 99.3561 37.75 101.938C37.75 104.194 36.1364 106.086 33.9784 106.53L33.7788 106.571V106.775V116.984C33.7788 117.405 33.4341 117.75 33 117.75C32.5659 117.75 32.2212 117.405 32.2212 116.984V106.775Z" fill="#00AEEF" stroke="white" stroke-width="0.5"/>
<circle cx="32.5" cy="202.5" r="32.5" fill="#3E3E3E" fill-opacity="0.87"/>
<path d="M38.9865 200.891C38.549 200.891 38.1946 200.542 38.1946 200.112V199.323C38.1946 197.386 39.28 195.628 41.0245 194.735C42.6526 193.902 43.5719 192.193 43.3726 190.392C43.151 188.405 41.5174 186.799 39.496 186.582C38.2167 186.44 36.9984 186.827 36.0514 187.659C35.1155 188.481 34.5839 189.657 34.5839 190.892C34.5839 191.322 34.2294 191.671 33.7919 191.671C33.3544 191.671 33 191.322 33 190.892C33 189.216 33.7255 187.616 34.9992 186.5C36.2674 185.384 37.9675 184.851 39.6788 185.036C42.4366 185.335 44.6574 187.518 44.9619 190.228C45.2388 192.678 43.9873 194.991 41.7721 196.128C40.5537 196.754 39.7951 197.984 39.7951 199.334V200.123C39.7784 200.542 39.424 200.891 38.9865 200.891ZM38.9865 205C38.549 205 38.1946 204.652 38.1946 204.222V202.779C38.1946 202.349 38.549 202.001 38.9865 202.001C39.424 202.001 39.7784 202.349 39.7784 202.779V204.222C39.7784 204.652 39.424 205 38.9865 205Z" fill="#00AEEF"/>
<path d="M30.503 220C30.4217 220 30.3355 219.985 30.259 219.951C30.0867 219.883 29.948 219.747 29.8714 219.571L27.1392 212.976L21.1819 219.372C20.9905 219.581 20.689 219.644 20.4306 219.542C20.1723 219.435 20 219.182 20 218.894V191.698C20 191.42 20.1579 191.172 20.4067 191.06C20.6555 190.948 20.9426 190.996 21.1436 191.181L40.7763 209.449C40.9821 209.639 41.0539 209.941 40.9582 210.209C40.8625 210.477 40.6137 210.657 40.3361 210.662L33.5175 210.876L36.2641 216.537C36.3455 216.707 36.355 216.897 36.2976 217.077C36.2354 217.253 36.1062 217.399 35.9435 217.477L30.7949 219.932C30.704 219.981 30.6035 220 30.503 220ZM27.3641 211.027C27.4023 211.027 27.4454 211.032 27.4885 211.037C27.7182 211.081 27.9096 211.237 27.9957 211.451L30.8571 218.358L34.7281 216.512L31.8189 210.516C31.7136 210.301 31.728 210.053 31.8476 209.848C31.9672 209.644 32.1825 209.517 32.4122 209.512L38.6087 209.317L21.3733 193.281V217.145L26.8664 211.246C26.9956 211.105 27.1775 211.027 27.3641 211.027Z" fill="white"/>
<circle cx="32.5" cy="287.5" r="32.5" fill="#3E3E3E" fill-opacity="0.87"/>
<path d="M35.7188 289.719H41.8125V299.469H35.7188" fill="#B9B9B9"/>
<path d="M29.625 289.719H23.5312V299.469H29.625" fill="#B9B9B9"/>
<path d="M43.0312 276.312V272.656H45.4688V276.312" fill="#B9B9B9"/>
<path d="M38.1562 276.312V272.656H40.5938V276.312" fill="#B9B9B9"/>
<path d="M24.75 276.312V272.656H27.1875V276.312" fill="#B9B9B9"/>
<path d="M19.875 276.312V272.656H22.3125V276.312" fill="#B9B9B9"/>
<path d="M36.1719 307.391H29.1719V270.657L29.8719 269.391H35.4719L36.1719 270.657V307.391Z" fill="#B9B9B9"/>
<path d="M49.7344 275.703H36.3281V270.828C36.3276 270.733 36.3046 270.639 36.2611 270.554L35.6517 269.335C35.6011 269.235 35.5236 269.15 35.4279 269.091C35.3321 269.032 35.2219 269 35.1094 269H30.2344C30.1218 269 30.0116 269.032 29.9159 269.091C29.8201 269.15 29.7427 269.235 29.692 269.335L29.0827 270.554C29.0392 270.639 29.0162 270.733 29.0156 270.828V275.703H15.6094C15.4478 275.703 15.2928 275.767 15.1785 275.882C15.0642 275.996 15 276.151 15 276.312V278.75C15 278.912 15.0642 279.067 15.1785 279.181C15.2928 279.295 15.4478 279.359 15.6094 279.359H18.4064L29.0156 289.969V306.172C29.0156 306.333 29.0798 306.488 29.1941 306.603C29.3084 306.717 29.4634 306.781 29.625 306.781H35.7188C35.8804 306.781 36.0354 306.717 36.1496 306.603C36.2639 306.488 36.3281 306.333 36.3281 306.172V289.969L46.9373 279.359H49.7344C49.896 279.359 50.051 279.295 50.1653 279.181C50.2795 279.067 50.3438 278.912 50.3438 278.75V276.312C50.3438 276.151 50.2795 275.996 50.1653 275.882C50.051 275.767 49.896 275.703 49.7344 275.703ZM16.2188 276.922H29.0156V278.141H16.2188V276.922ZM20.1248 279.359H29.0156V288.25L20.1248 279.359ZM35.1094 305.562H30.2344V270.974L30.6122 270.219H34.7316L35.1094 270.974V305.562ZM36.3281 288.25V279.359H45.2189L36.3281 288.25ZM49.125 278.141H36.3281V276.922H49.125V278.141Z" fill="#B9B9B9"/>
<circle cx="32.5" cy="372.5" r="32.5" fill="#3E3E3E" fill-opacity="0.87"/>
<path d="M43.4975 386.113C42.4137 386.113 41.9135 385.77 41.2794 385.335C40.5591 384.841 39.6624 384.226 37.995 384.226C36.328 384.226 35.4323 384.841 34.7124 385.335C34.0793 385.77 33.5786 386.113 32.4967 386.113C31.4134 386.113 30.9127 385.77 30.2791 385.335C29.5592 384.841 28.663 384.226 26.9956 384.226C25.3291 384.226 24.4329 384.841 23.713 385.335C23.0799 385.77 22.5797 386.113 21.4973 386.113C20.4149 386.113 19.9152 385.77 19.2816 385.335C18.5622 384.842 17.6665 384.226 16 384.226V386.113C17.0819 386.113 17.5816 386.457 18.2152 386.892C18.9346 387.384 19.8304 388 21.4969 388C23.1638 388 24.0595 387.385 24.7794 386.892C25.4125 386.457 25.9127 386.113 26.9951 386.113C28.0785 386.113 28.5791 386.457 29.2123 386.892C29.9326 387.385 30.8288 388 32.4958 388C34.1627 388 35.0589 387.385 35.7783 386.892C36.4129 386.456 36.9126 386.113 37.995 386.113C39.0793 386.113 39.579 386.457 40.213 386.892C40.9339 387.385 41.83 388 43.4975 388C45.1649 388 46.0616 387.385 46.7819 386.892C47.416 386.456 47.9157 386.113 49 386.113V384.226C47.3326 384.226 46.4364 384.841 45.7156 385.335C45.0815 385.77 44.5813 386.113 43.4975 386.113ZM43.4975 381.868C42.4137 381.868 41.9135 381.525 41.2794 381.09C40.5591 380.596 39.6624 379.981 37.995 379.981C36.328 379.981 35.4323 380.596 34.7124 381.09C34.0793 381.525 33.5786 381.868 32.4967 381.868C31.4134 381.868 30.9127 381.525 30.2791 381.09C29.5592 380.596 28.663 379.981 26.9956 379.981C25.3291 379.981 24.4329 380.596 23.713 381.09C23.0799 381.525 22.5797 381.868 21.4973 381.868C20.4149 381.868 19.9152 381.525 19.2816 381.09C18.5622 380.597 17.6665 379.981 16 379.981V381.868C17.0819 381.868 17.5816 382.211 18.2152 382.646C18.9346 383.139 19.8304 383.755 21.4969 383.755C23.1638 383.755 24.0595 383.14 24.7794 382.646C25.4125 382.211 25.9127 381.868 26.9951 381.868C28.0785 381.868 28.5791 382.211 29.2123 382.646C29.9326 383.14 30.8288 383.755 32.4958 383.755C34.1627 383.755 35.0589 383.14 35.7783 382.646C36.4129 382.211 36.9126 381.868 37.995 381.868C39.0793 381.868 39.579 382.211 40.213 382.646C40.9339 383.14 41.83 383.755 43.4975 383.755C45.1649 383.755 46.0616 383.14 46.7819 382.646C47.416 382.211 47.9157 381.868 49 381.868V379.981C47.3326 379.981 46.4364 380.596 45.7156 381.09C45.0815 381.525 44.5813 381.868 43.4975 381.868ZM43.4975 377.623C42.4137 377.623 41.9135 377.279 41.2794 376.844C40.5591 376.35 39.6624 375.736 37.995 375.736C36.328 375.736 35.4323 376.351 34.7124 376.844C34.0793 377.279 33.5786 377.623 32.4967 377.623C31.4134 377.623 30.9127 377.279 30.2791 376.844C29.5592 376.351 28.663 375.736 26.9956 375.736C25.3291 375.736 24.4329 376.351 23.713 376.844C23.0799 377.279 22.5797 377.623 21.4973 377.623C20.4149 377.623 19.9152 377.279 19.2816 376.844C18.5622 376.351 17.6665 375.736 16 375.736V377.623C17.0819 377.623 17.5816 377.966 18.2152 378.401C18.9346 378.894 19.8304 379.509 21.4969 379.509C23.1638 379.509 24.0595 378.894 24.7794 378.401C25.4125 377.966 25.9127 377.623 26.9951 377.623C28.0785 377.623 28.5791 377.966 29.2123 378.401C29.9326 378.894 30.8288 379.509 32.4958 379.509C34.1627 379.509 35.0589 378.894 35.7783 378.401C36.4129 377.966 36.9126 377.623 37.995 377.623C39.0793 377.623 39.579 377.966 40.213 378.401C40.9339 378.895 41.83 379.509 43.4975 379.509C45.1649 379.509 46.0616 378.895 46.7819 378.401C47.416 377.966 47.9157 377.623 49 377.623V375.736C47.3326 375.736 46.4364 376.35 45.7156 376.844C45.0815 377.279 44.5813 377.623 43.4975 377.623ZM43.4975 373.377C42.4137 373.377 41.9135 373.034 41.2794 372.599C40.5591 372.105 39.6624 371.491 37.995 371.491C36.328 371.491 35.4323 372.106 34.7124 372.599C34.0793 373.034 33.5786 373.377 32.4967 373.377C31.4134 373.377 30.9127 373.034 30.2791 372.599C29.5592 372.106 28.663 371.491 26.9956 371.491C25.3291 371.491 24.4329 372.106 23.713 372.599C23.0799 373.034 22.5797 373.377 21.4973 373.377C20.4149 373.377 19.9152 373.034 19.2816 372.599C18.5622 372.106 17.6665 371.491 16 371.491V373.377C17.0819 373.377 17.5816 373.721 18.2152 374.156C18.9346 374.649 19.8304 375.264 21.4969 375.264C23.1638 375.264 24.0595 374.649 24.7794 374.156C25.4125 373.721 25.9127 373.377 26.9951 373.377C28.0785 373.377 28.5791 373.721 29.2123 374.156C29.9326 374.649 30.8288 375.264 32.4958 375.264C34.1627 375.264 35.0589 374.649 35.7783 374.156C36.4129 373.72 36.9126 373.377 37.995 373.377C39.0793 373.377 39.579 373.721 40.213 374.156C40.9339 374.649 41.83 375.264 43.4975 375.264C45.1649 375.264 46.0616 374.649 46.7819 374.156C47.416 373.72 47.9157 373.377 49 373.377V371.491C47.3326 371.491 46.4364 372.105 45.7156 372.599C45.0815 373.034 44.5813 373.377 43.4975 373.377ZM25.1608 355.339C24.9793 355.568 20.7143 361 20.7143 364.887C20.7143 367.748 23.0408 370.075 25.9 370.075C28.7592 370.075 31.0857 367.748 31.0857 364.887C31.0857 361 26.8207 355.568 26.6392 355.339C26.2814 354.887 25.5186 354.887 25.1608 355.339ZM25.9 368.189C24.0803 368.189 22.6 366.707 22.6 364.887C22.6 362.681 24.5753 359.394 25.9005 357.508C27.2257 359.393 29.2 362.676 29.2 364.887C29.2 366.707 27.7197 368.189 25.9 368.189ZM38.3613 360.056C38.061 360.435 35.429 363.833 35.429 366.403C35.4295 368.428 37.0766 370.075 39.1 370.075C41.1234 370.075 42.7705 368.428 42.7705 366.403C42.7705 363.833 40.139 360.435 39.8387 360.056C39.4819 359.604 38.7181 359.604 38.3613 360.056ZM40.8848 366.403C40.8848 367.388 40.0843 368.189 39.1 368.189C38.1157 368.189 37.3152 367.388 37.3152 366.403C37.3152 365.208 38.2995 363.454 39.1 362.255C39.9005 363.454 40.8848 365.208 40.8848 366.403Z" fill="#B9B9B9"/>
<circle cx="32.5" cy="457.5" r="32.5" fill="#3E3E3E" fill-opacity="0.87"/>
<path fill-rule="evenodd" clip-rule="evenodd" d="M32.5 446V471V446ZM20 458.5H45H20Z" fill="white"/>
<path d="M32.5 446V471M20 458.5H45" stroke="white" stroke-width="2" stroke-linecap="round" stroke-linejoin="round"/>
<circle cx="32.5" cy="542.5" r="32.5" fill="#3E3E3E" fill-opacity="0.87"/>
<path d="M42.4286 545H23.5714C22.7071 545 22 544.325 22 543.5C22 542.675 22.7071 542 23.5714 542H42.4286C43.2929 542 44 542.675 44 543.5C44 544.325 43.2929 545 42.4286 545Z" fill="white"/>
<circle cx="32.5" cy="627.5" r="32.5" fill="#3E3E3E" fill-opacity="0.87"/>
<path d="M28.45 619.55L33 615L37.55 619.55M46 628H20M24.55 623.45L20 628L24.55 632.55M41.45 632.55L46 628L41.45 623.45M33 641V615M28.45 636.45L33 641L37.55 636.45" stroke="white" stroke-width="2"/>
<circle cx="32.5" cy="712.5" r="32.5" fill="#3E3E3E" fill-opacity="0.87"/>
<path d="M45.3576 719.248L42.7971 718L34.0647 722.253C33.3952 722.58 32.6048 722.58 31.9353 722.253L23.2029 718L20.6424 719.248C20.4491 719.342 20.2868 719.485 20.1734 719.663C20.06 719.84 20 720.043 20 720.251C20 720.459 20.06 720.662 20.1734 720.839C20.2868 721.016 20.4491 721.16 20.6424 721.254L31.9353 726.755C32.6048 727.082 33.3952 727.082 34.0647 726.755L45.3576 721.254C45.5509 721.16 45.7132 721.016 45.8266 720.839C45.94 720.662 46 720.459 46 720.251C46 720.043 45.94 719.84 45.8266 719.663C45.7132 719.485 45.5509 719.342 45.3576 719.248Z" fill="white"/>
<path d="M45.3576 712.248L42.7971 711L34.0647 715.253C33.3952 715.58 32.6048 715.58 31.9353 715.253L23.2029 711L20.6424 712.248C20.4491 712.342 20.2868 712.485 20.1734 712.663C20.06 712.84 20 713.043 20 713.251C20 713.459 20.06 713.662 20.1734 713.839C20.2868 714.016 20.4491 714.16 20.6424 714.254L31.9353 719.755C32.6048 720.082 33.3952 720.082 34.0647 719.755L45.3576 714.254C45.5509 714.16 45.7132 714.016 45.8266 713.839C45.94 713.662 46 713.459 46 713.251C46 713.043 45.94 712.84 45.8266 712.663C45.7132 712.485 45.5509 712.342 45.3576 712.248Z" fill="white"/>
<path d="M31.9365 700.236L20.6424 705.534C20.4491 705.624 20.2868 705.763 20.1734 705.933C20.06 706.104 20 706.3 20 706.5C20 706.7 20.06 706.896 20.1734 707.067C20.2868 707.237 20.4491 707.375 20.6424 707.466L31.9353 712.764C32.6048 713.079 33.3952 713.079 34.0647 712.764L45.3576 707.466C45.5509 707.375 45.7132 707.237 45.8266 707.067C45.94 706.896 46 706.7 46 706.5C46 706.3 45.94 706.104 45.8266 705.933C45.7132 705.763 45.5509 705.624 45.3576 705.534L34.0647 700.236C33.7351 700.081 33.3705 700 33.0006 700C32.6307 700 32.2661 700.081 31.9365 700.236Z" fill="#00AEEF"/>
<circle cx="32.5" cy="797.5" r="32.5" fill="#3E3E3E" fill-opacity="0.87"/>
<path d="M49.087 785.212L49.0673 785.195L49.046 785.18C48.9086 785.084 48.7528 785.018 48.5887 784.986C48.4246 784.954 48.2555 784.956 48.0921 784.992L48.0921 784.991L48.0797 784.995L38.2574 787.43L28.3896 782.552L28.2848 782.5H28.168H27.72H27.6592L27.6002 782.515L17.3602 785.042L17.3496 785.044L17.339 785.048C17.1039 785.117 16.8957 785.257 16.7447 785.451C16.5936 785.645 16.5077 785.882 16.5002 786.128L16.5 786.136V786.143V808.841H16.4999L16.5001 808.853C16.5043 809.025 16.5469 809.194 16.6247 809.348C16.7025 809.501 16.8134 809.636 16.9491 809.741L16.9553 809.746L16.9617 809.751C17.1578 809.893 17.3938 809.971 17.636 809.973L17.636 809.973H17.64H17.8H17.8611L17.9203 809.958L27.7426 807.522L37.6104 812.401L37.7152 812.453H37.7466L37.7652 812.46L37.8586 812.5H37.96H38.28H38.3408L38.3998 812.485L48.6398 809.958L48.6398 809.958L48.6525 809.955C48.8923 809.889 49.1052 809.748 49.2584 809.551C49.4117 809.354 49.4969 809.113 49.5 808.863H49.5V808.857V786.096H49.5002L49.4998 786.083C49.4956 785.917 49.4565 785.754 49.3853 785.604L48.9337 785.818L49.3853 785.604C49.3141 785.454 49.2124 785.321 49.087 785.212ZM18.78 807.397V786.977L26.74 785.013V805.432L18.78 807.397ZM36.98 789.329V809.537L29.02 805.608V785.4L36.98 789.329ZM47.22 787.54V807.96L39.26 809.924V789.504L47.22 787.54Z" fill="#00AEEF" stroke="#00AEEF"/>
</svg>
