<svg width="32" height="34" viewBox="0 0 32 34" fill="none" xmlns="http://www.w3.org/2000/svg">
<g filter="url(#filter0_d_5532_1258)">
<path d="M23.5 16.3231V6.90625C23.4982 6.89314 23.4958 6.88012 23.4927 6.86725C23.4911 6.85304 23.4886 6.83893 23.4854 6.825C23.4734 6.75652 23.4437 6.69238 23.3993 6.63894L17.7118 0.138938C17.6623 0.0854465 17.599 0.0466463 17.5289 0.0268125C17.5106 0.0213133 17.4918 0.0172387 17.4729 0.014625C17.4511 0.00783345 17.4288 0.00294012 17.4062 0L6.03125 0C5.49253 0 4.97587 0.214006 4.59494 0.594939C4.21401 0.975873 4 1.49253 4 2.03125V23.9688C4 24.5075 4.21401 25.0241 4.59494 25.4051C4.97587 25.786 5.49253 26 6.03125 26H22.2138C22.2462 25.9975 22.2781 25.9909 22.3089 25.9805C22.434 25.9902 22.5599 26 22.6875 26C23.9049 25.9929 25.0757 25.5306 25.9694 24.704C26.8632 23.8773 27.4153 22.7461 27.5172 21.533C27.619 20.3198 27.2633 19.1124 26.5199 18.1483C25.7765 17.1842 24.6992 16.5331 23.5 16.3231ZM17.8125 1.48769L22.2 6.5H19.0312C18.708 6.5 18.398 6.3716 18.1695 6.14304C17.9409 5.91448 17.8125 5.60448 17.8125 5.28125V1.48769ZM17.4168 6.5H7.65625C7.54851 6.5 7.44517 6.4572 7.36899 6.38101C7.2928 6.30483 7.25 6.20149 7.25 6.09375V3.65625C7.25 3.54851 7.2928 3.44517 7.36899 3.36899C7.44517 3.2928 7.54851 3.25 7.65625 3.25H17V5.28125C17.0016 5.7222 17.1481 6.15041 17.4168 6.5ZM6.03125 25.1875C5.70802 25.1875 5.39802 25.0591 5.16946 24.8305C4.9409 24.602 4.8125 24.292 4.8125 23.9688V2.03125C4.8125 1.70802 4.9409 1.39802 5.16946 1.16946C5.39802 0.940904 5.70802 0.8125 6.03125 0.8125H17V2.4375H7.65625C7.33302 2.4375 7.02302 2.5659 6.79446 2.79446C6.5659 3.02302 6.4375 3.33302 6.4375 3.65625V6.09375C6.4375 6.41698 6.5659 6.72698 6.79446 6.95554C7.02302 7.1841 7.33302 7.3125 7.65625 7.3125H22.6875V16.25C22.0031 16.2504 21.3265 16.3953 20.702 16.6754C20.0775 16.9554 19.5193 17.3642 19.0638 17.875H6.84375C6.73601 17.875 6.63267 17.9178 6.55649 17.994C6.4803 18.0702 6.4375 18.1735 6.4375 18.2812C6.4375 18.389 6.4803 18.4923 6.55649 18.5685C6.63267 18.6447 6.73601 18.6875 6.84375 18.6875H18.4722C18.181 19.1896 17.9826 19.7401 17.8864 20.3125H6.84375C6.73601 20.3125 6.63267 20.3553 6.55649 20.4315C6.4803 20.5077 6.4375 20.611 6.4375 20.7188C6.4375 20.8265 6.4803 20.9298 6.55649 21.006C6.63267 21.0822 6.73601 21.125 6.84375 21.125H17.8125C17.8137 21.6789 17.9098 22.2286 18.0969 22.75H6.84375C6.73601 22.75 6.63267 22.7928 6.55649 22.869C6.4803 22.9452 6.4375 23.0485 6.4375 23.1562C6.4375 23.264 6.4803 23.3673 6.55649 23.4435C6.63267 23.5197 6.73601 23.5625 6.84375 23.5625H18.4722C18.8497 24.2141 19.3721 24.7701 19.9989 25.1875H6.03125ZM22.6875 25.1875C21.884 25.1875 21.0986 24.9492 20.4305 24.5028C19.7624 24.0565 19.2417 23.422 18.9342 22.6797C18.6268 21.9373 18.5463 21.1205 18.7031 20.3324C18.8598 19.5444 19.2467 18.8205 19.8149 18.2524C20.383 17.6842 21.1069 17.2973 21.8949 17.1406C22.683 16.9838 23.4998 17.0643 24.2422 17.3717C24.9845 17.6792 25.619 18.1999 26.0653 18.868C26.5117 19.5361 26.75 20.3215 26.75 21.125C26.7487 22.202 26.3203 23.2346 25.5587 23.9962C24.7971 24.7578 23.7645 25.1862 22.6875 25.1875Z" fill="white"/>
<path d="M20 21.6667L21.875 23L25 19" stroke="white" stroke-linecap="round"/>
</g>
<defs>
<filter id="filter0_d_5532_1258" x="0" y="0" width="31.5352" height="34" filterUnits="userSpaceOnUse" color-interpolation-filters="sRGB">
<feFlood flood-opacity="0" result="BackgroundImageFix"/>
<feColorMatrix in="SourceAlpha" type="matrix" values="0 0 0 0 0 0 0 0 0 0 0 0 0 0 0 0 0 0 127 0" result="hardAlpha"/>
<feOffset dy="4"/>
<feGaussianBlur stdDeviation="2"/>
<feComposite in2="hardAlpha" operator="out"/>
<feColorMatrix type="matrix" values="0 0 0 0 0 0 0 0 0 0 0 0 0 0 0 0 0 0 0.25 0"/>
<feBlend mode="normal" in2="BackgroundImageFix" result="effect1_dropShadow_5532_1258"/>
<feBlend mode="normal" in="SourceGraphic" in2="effect1_dropShadow_5532_1258" result="shape"/>
</filter>
</defs>
</svg>
