<svg width="65" height="65" viewBox="0 0 65 65" fill="none" xmlns="http://www.w3.org/2000/svg">
<circle cx="32.5" cy="32.5" r="32.5" fill="#056FFC" fill-opacity="0.5"/>
<path d="M15.2702 44.2548C15.3525 44.3028 15.4464 44.3365 15.5456 44.3536C15.6449 44.3706 15.7474 44.3707 15.8465 44.3539L26.1769 42.3709L36.4755 46.6567L36.9373 46.6615L47.5155 44.6411C47.6555 44.609 47.7791 44.5421 47.8689 44.4498C47.9587 44.3575 48.0101 44.2447 48.0156 44.1272L48.2132 25.0024C48.2116 24.9201 48.1876 24.839 48.1427 24.7649C48.0979 24.6909 48.0333 24.6256 47.9537 24.5738C47.8397 24.5044 47.7015 24.4657 47.559 24.4633L47.394 24.4616L37.0637 26.4446L26.7651 22.1588L26.7486 22.1586L26.6335 22.1175L26.3037 22.1141L15.7255 24.1344C15.5842 24.1646 15.4591 24.2311 15.3689 24.3237C15.2787 24.4164 15.2283 24.5303 15.2253 24.6483L15.0272 43.8263C15.0289 43.9073 15.0513 43.9872 15.0932 44.0609C15.135 44.1346 15.1953 44.2006 15.2702 44.2548ZM46.7 43.7409L37.4441 45.5087L37.6308 27.4354L46.8867 25.6676L46.7 43.7409ZM27.1139 23.52L36.3121 27.3419L36.1265 45.3088L26.9283 41.4869L27.1139 23.52ZM16.5404 25.0879L25.7963 23.32L25.6096 41.3934L16.3537 43.1612L16.5404 25.0879Z" fill="white"/>
<path d="M32.2212 21.7752V21.5714L32.0216 21.5303C29.8636 21.086 28.25 19.1935 28.25 16.9384C28.25 14.3561 30.3779 12.25 33 12.25C35.6221 12.25 37.75 14.3561 37.75 16.9384C37.75 19.1935 36.1364 21.086 33.9784 21.5303L33.7788 21.5714V21.7752V31.9839C33.7788 32.4051 33.4341 32.75 33 32.75C32.5659 32.75 32.2212 32.4051 32.2212 31.9839V21.7752Z" fill="#1346FD" stroke="white" stroke-width="0.5"/>
</svg>
