<svg width="44" height="30" viewBox="0 0 44 30" fill="none" xmlns="http://www.w3.org/2000/svg">
<path d="M25.5434 17.5H22.5V14.4566L33.0665 3.89005L36.11 6.93346L25.5434 17.5ZM39.3539 2.98142C39.5487 3.17621 39.5487 3.49472 39.3539 3.68951L37.8772 5.16621L34.8338 2.12279L36.3105 0.646094C36.5053 0.451302 36.8238 0.451302 37.0186 0.646094L39.3539 2.98142Z" fill="white" stroke="white"/>
<path d="M3 25L4.31249 25.0014L34.4875 25.0327L35.8012 25.0341L35.8044 22.0116L34.4907 22.0102L4.31563 21.9788L3.00314 21.9775L3 25Z" fill="white"/>
<path d="M0.181978 23.4981L5.22411 28.738L5.98078 29.5242L7.53915 27.9964L6.78248 27.2102L3.25268 23.5427L6.88542 19.9823L7.6646 19.2184L6.15125 17.646L5.37207 18.4099L0.181978 23.4981Z" fill="white"/>
<path d="M36.0506 23.483C36.0229 25.3932 37.5583 26.9897 39.451 27.0172C41.344 27.0447 42.926 25.4935 42.9537 23.5832C42.9815 21.6727 41.4449 20.0776 39.5522 20.0501C37.6598 20.0226 36.0783 21.5725 36.0506 23.483ZM38.3531 23.5164C38.3626 22.8635 38.872 22.3645 39.5185 22.3739C40.1657 22.3833 40.6607 22.8968 40.6512 23.5498C40.6418 24.2019 40.1317 24.7028 39.4848 24.6934C38.8386 24.684 38.3436 24.1685 38.3531 23.5164Z" fill="#1346FD"/>
</svg>
