<svg width="32" height="32" viewBox="0 0 32 32" fill="none" xmlns="http://www.w3.org/2000/svg">
<path d="M24 29C24 30.1 23.1 31 22 31H3C1.9 31 1 30.1 1 29V3C1 1.9 1.9 1 3 1H17.2C17.7 1 18.2 1.2 18.6 1.6L23.4 6.4C23.8 6.8 24 7.3 24 7.8V29Z" stroke="#707992" stroke-width="2" stroke-miterlimit="10" stroke-linecap="round" stroke-linejoin="round"/>
<path d="M18 1V5C18 6.1 18.9 7 20 7H24" fill="#707992"/>
<path d="M6 19H18" stroke="#707992" stroke-width="2" stroke-miterlimit="10" stroke-linecap="round" stroke-linejoin="round"/>
<path d="M6 22H17" stroke="#707992" stroke-width="2" stroke-miterlimit="10" stroke-linecap="round" stroke-linejoin="round"/>
<path d="M6 25H19" stroke="#707992" stroke-width="2" stroke-miterlimit="10" stroke-linecap="round" stroke-linejoin="round"/>
<path d="M27 11V28L29 31L31 28V11H27Z" fill="#00AEEF"/>
<path d="M29 31L27 28V8.4C27 7.6 27.6 7 28.4 7H29.6C30.4 7 31 7.6 31 8.4V28L29 31Z" stroke="#707992" stroke-width="2" stroke-miterlimit="10" stroke-linecap="round" stroke-linejoin="round"/>
<path d="M27 11H31" stroke="#707992" stroke-width="2" stroke-miterlimit="10" stroke-linecap="round" stroke-linejoin="round"/>
<path d="M5.60795 9.63636V10.3182H3.22443V9.63636H5.60795ZM3.86364 8.59091H4.71307V12.7188C4.71307 12.8835 4.73769 13.0076 4.78693 13.0909C4.83617 13.1723 4.89962 13.2282 4.97727 13.2585C5.05682 13.2869 5.14299 13.3011 5.2358 13.3011C5.30398 13.3011 5.36364 13.2964 5.41477 13.2869C5.46591 13.2775 5.50568 13.2699 5.53409 13.2642L5.6875 13.9659C5.63826 13.9848 5.56818 14.0038 5.47727 14.0227C5.38636 14.0436 5.27273 14.0549 5.13636 14.0568C4.91288 14.0606 4.70455 14.0208 4.51136 13.9375C4.31818 13.8542 4.16193 13.7254 4.04261 13.5511C3.9233 13.3769 3.86364 13.1581 3.86364 12.8949V8.59091ZM7.08452 15.6364C6.95762 15.6364 6.84209 15.6259 6.73793 15.6051C6.63376 15.5862 6.55611 15.5653 6.50497 15.5426L6.70952 14.8466C6.86482 14.8883 7.00308 14.9063 7.12429 14.9006C7.2455 14.8949 7.35251 14.8494 7.44531 14.7642C7.54001 14.679 7.62334 14.5398 7.69531 14.3466L7.80043 14.0568L6.20384 9.63636H7.11293L8.21804 13.0227H8.26349L9.36861 9.63636H10.2805L8.48224 14.5824C8.39891 14.8097 8.29285 15.0019 8.16406 15.1591C8.03527 15.3182 7.88187 15.4375 7.70384 15.517C7.5258 15.5966 7.31937 15.6364 7.08452 15.6364ZM11.0788 15.6364V9.63636H11.9084V10.3438H11.9794C12.0286 10.2528 12.0997 10.1477 12.1925 10.0284C12.2853 9.90909 12.4141 9.80492 12.5788 9.71591C12.7436 9.625 12.9614 9.57955 13.2322 9.57955C13.5845 9.57955 13.8989 9.66856 14.1754 9.84659C14.4519 10.0246 14.6688 10.2812 14.826 10.6165C14.9851 10.9517 15.0646 11.3551 15.0646 11.8267C15.0646 12.2983 14.986 12.7027 14.8288 13.0398C14.6716 13.375 14.4557 13.6335 14.1811 13.8153C13.9065 13.9953 13.593 14.0852 13.2408 14.0852C12.9756 14.0852 12.7588 14.0407 12.5902 13.9517C12.4235 13.8627 12.2929 13.7585 12.1982 13.6392C12.1035 13.5199 12.0305 13.4138 11.9794 13.321H11.9283V15.6364H11.0788ZM11.9112 11.8182C11.9112 12.125 11.9557 12.3939 12.0447 12.625C12.1338 12.8561 12.2625 13.0369 12.4311 13.1676C12.5997 13.2964 12.8061 13.3608 13.0504 13.3608C13.3042 13.3608 13.5163 13.2936 13.6868 13.1591C13.8572 13.0227 13.986 12.8381 14.0732 12.6051C14.1622 12.3722 14.2067 12.1098 14.2067 11.8182C14.2067 11.5303 14.1631 11.2718 14.076 11.0426C13.9908 10.8134 13.862 10.6326 13.6896 10.5C13.5192 10.3674 13.3061 10.3011 13.0504 10.3011C12.8042 10.3011 12.5959 10.3646 12.4254 10.4915C12.2569 10.6184 12.129 10.7955 12.0419 11.0227C11.9548 11.25 11.9112 11.5152 11.9112 11.8182ZM17.897 14.0881C17.4671 14.0881 17.0968 13.9962 16.7862 13.8125C16.4775 13.6269 16.2389 13.3665 16.0703 13.0312C15.9036 12.6941 15.8203 12.2992 15.8203 11.8466C15.8203 11.3996 15.9036 11.0057 16.0703 10.6648C16.2389 10.3239 16.4737 10.0578 16.7749 9.86648C17.0779 9.67519 17.4321 9.57955 17.8374 9.57955C18.0836 9.57955 18.3222 9.62027 18.5533 9.7017C18.7843 9.78314 18.9917 9.91098 19.1754 10.0852C19.3591 10.2595 19.504 10.4858 19.6101 10.7642C19.7161 11.0407 19.7692 11.3769 19.7692 11.7727V12.0739H16.3004V11.4375H18.9368C18.9368 11.214 18.8913 11.0161 18.8004 10.8438C18.7095 10.6695 18.5817 10.5322 18.4169 10.4318C18.254 10.3314 18.0627 10.2812 17.843 10.2812C17.6044 10.2812 17.3961 10.34 17.218 10.4574C17.0419 10.5729 16.9055 10.7244 16.8089 10.9119C16.7143 11.0975 16.6669 11.2992 16.6669 11.517V12.0142C16.6669 12.3059 16.718 12.554 16.8203 12.7585C16.9245 12.9631 17.0694 13.1193 17.255 13.2273C17.4406 13.3333 17.6574 13.3864 17.9055 13.3864C18.0665 13.3864 18.2133 13.3636 18.3459 13.3182C18.4785 13.2708 18.593 13.2008 18.6896 13.108C18.7862 13.0152 18.8601 12.9006 18.9112 12.7642L19.7152 12.9091C19.6508 13.1458 19.5353 13.3532 19.3686 13.5312C19.2038 13.7074 18.9964 13.8447 18.7464 13.9432C18.4983 14.0398 18.2152 14.0881 17.897 14.0881Z" fill="#707992"/>
</svg>
