<svg width="36" height="39" viewBox="0 0 36 39" fill="none" xmlns="http://www.w3.org/2000/svg">
<path d="M20.7188 20.7188H26.8125V30.4688H20.7188" fill="#B9B9B9"/>
<path d="M14.625 20.7188H8.53125V30.4688H14.625" fill="#B9B9B9"/>
<path d="M28.0312 7.3125V3.65625H30.4688V7.3125" fill="#B9B9B9"/>
<path d="M23.1562 7.3125V3.65625H25.5938V7.3125" fill="#B9B9B9"/>
<path d="M9.75 7.3125V3.65625H12.1875V7.3125" fill="#B9B9B9"/>
<path d="M4.875 7.3125V3.65625H7.3125V7.3125" fill="#B9B9B9"/>
<path d="M21.1719 38.3906H14.1719V1.65729L14.8719 0.390625H20.4719L21.1719 1.65729V38.3906Z" fill="#B9B9B9"/>
<path d="M34.7344 6.70312H21.3281V1.82812C21.3276 1.73273 21.3046 1.63881 21.2611 1.55391L20.6517 0.335156C20.6011 0.234661 20.5236 0.150152 20.4279 0.0909938C20.3321 0.031836 20.2219 0.00034107 20.1094 0H15.2344C15.1218 0.00034107 15.0116 0.031836 14.9159 0.0909938C14.8201 0.150152 14.7427 0.234661 14.692 0.335156L14.0827 1.55391C14.0392 1.63881 14.0162 1.73273 14.0156 1.82812V6.70312H0.609375C0.447759 6.70312 0.292762 6.76733 0.178482 6.88161C0.0642018 6.99589 0 7.15088 0 7.3125V9.75C0 9.91162 0.0642018 10.0666 0.178482 10.1809C0.292762 10.2952 0.447759 10.3594 0.609375 10.3594H3.40641L14.0156 20.9686V37.1719C14.0156 37.3335 14.0798 37.4885 14.1941 37.6028C14.3084 37.717 14.4634 37.7812 14.625 37.7812H20.7188C20.8804 37.7812 21.0354 37.717 21.1496 37.6028C21.2639 37.4885 21.3281 37.3335 21.3281 37.1719V20.9686L31.9373 10.3594H34.7344C34.896 10.3594 35.051 10.2952 35.1653 10.1809C35.2795 10.0666 35.3438 9.91162 35.3438 9.75V7.3125C35.3438 7.15088 35.2795 6.99589 35.1653 6.88161C35.051 6.76733 34.896 6.70312 34.7344 6.70312ZM1.21875 7.92188H14.0156V9.14062H1.21875V7.92188ZM5.12484 10.3594H14.0156V19.2502L5.12484 10.3594ZM20.1094 36.5625H15.2344V1.97437L15.6122 1.21875H19.7316L20.1094 1.97437V36.5625ZM21.3281 19.2502V10.3594H30.2189L21.3281 19.2502ZM34.125 9.14062H21.3281V7.92188H34.125V9.14062Z" fill="#B9B9B9"/>
</svg>
