<svg width="30" height="36" viewBox="0 0 30 36" fill="none" xmlns="http://www.w3.org/2000/svg">
<path d="M5 0C2.24219 0 0 2.01797 0 4.5V31.5C0 33.982 2.24219 36 5 36H25C27.7578 36 30 33.982 30 31.5V11.25H20C18.6172 11.25 17.5 10.2445 17.5 9V0H5ZM20 0V9H30L20 0ZM6.25 15.75H7.5C9.22656 15.75 10.625 17.0086 10.625 18.5625V19.125C10.625 19.7437 10.0625 20.25 9.375 20.25C8.6875 20.25 8.125 19.7437 8.125 19.125V18.5625C8.125 18.2531 7.84375 18 7.5 18H6.25C5.90625 18 5.625 18.2531 5.625 18.5625V24.1875C5.625 24.4969 5.90625 24.75 6.25 24.75H7.5C7.84375 24.75 8.125 24.4969 8.125 24.1875V23.625C8.125 23.0063 8.6875 22.5 9.375 22.5C10.0625 22.5 10.625 23.0063 10.625 23.625V24.1875C10.625 25.7414 9.22656 27 7.5 27H6.25C4.52344 27 3.125 25.7414 3.125 24.1875V18.5625C3.125 17.0086 4.52344 15.75 6.25 15.75ZM11.875 19.0125C11.875 17.2125 13.5 15.75 15.5 15.75H16.875C17.5625 15.75 18.125 16.2563 18.125 16.875C18.125 17.4937 17.5625 18 16.875 18H15.5C14.8828 18 14.375 18.45 14.375 19.0125C14.375 19.3781 14.5938 19.7086 14.9375 19.8914L16.9219 20.9109C18.0469 21.4945 18.75 22.5703 18.75 23.7445C18.75 25.5445 17.125 27.007 15.125 27.007H13.125C12.4375 27.007 11.875 26.5008 11.875 25.882C11.875 25.2633 12.4375 24.757 13.125 24.757H15.125C15.7422 24.757 16.25 24.307 16.25 23.7445C16.25 23.3789 16.0312 23.0484 15.6875 22.8656L13.7031 21.8461C12.5703 21.2625 11.875 20.1797 11.875 19.0125ZM21.875 16.875V19.0969C21.875 20.7141 22.3047 22.3031 23.125 23.7375C23.9453 22.3102 24.375 20.7211 24.375 19.0969V16.875C24.375 16.2563 24.9375 15.75 25.625 15.75C26.3125 15.75 26.875 16.2563 26.875 16.875V19.0969C26.875 21.5367 26.0703 23.9273 24.5625 25.9594L24.1641 26.5008C23.9297 26.8172 23.5391 27 23.125 27C22.7109 27 22.3203 26.8102 22.0859 26.5008L21.6875 25.9594C20.1797 23.9273 19.375 21.5367 19.375 19.0969V16.875C19.375 16.2563 19.9375 15.75 20.625 15.75C21.3125 15.75 21.875 16.2563 21.875 16.875Z" fill="#178250"/>
</svg>
