<svg width="40" height="35" viewBox="0 0 40 35" fill="none" xmlns="http://www.w3.org/2000/svg">
<path d="M24.7819 16.9675L9.17969 14.4081V33.3204C9.17987 33.5259 9.22351 33.7293 9.30812 33.9191C9.39273 34.1088 9.51664 34.2812 9.67279 34.4263C9.82894 34.5715 10.0143 34.6866 10.2182 34.7651C10.4221 34.8435 10.6406 34.8838 10.8613 34.8837H37.7834C38.0043 34.8842 38.2231 34.8441 38.4274 34.7658C38.6316 34.6875 38.8173 34.5725 38.9737 34.4273C39.1302 34.2821 39.2543 34.1096 39.3391 33.9197C39.4239 33.7297 39.4676 33.5261 39.4678 33.3204V26.3522L24.7819 16.9675Z" fill="#185C37"/>
<path d="M24.7819 0.759766H10.8613C10.6406 0.759594 10.4221 0.799891 10.2182 0.878358C10.0143 0.956824 9.82894 1.07192 9.67279 1.21708C9.51664 1.36224 9.39273 1.53462 9.30812 1.72437C9.22351 1.91413 9.17987 2.11754 9.17969 2.323V9.29126L24.7819 17.8227L33.0432 20.3822L39.4678 17.8227V9.29126L24.7819 0.759766Z" fill="#21A366"/>
<path d="M9.17969 9.29309H24.7819V17.8246H9.17969V9.29309Z" fill="#107C41"/>
<path opacity="0.1" d="M20.346 7.58398H9.17969V28.9127H20.346C20.791 28.9106 21.2171 28.7454 21.5322 28.4528C21.8472 28.1602 22.0257 27.7638 22.029 27.3495V9.14722C22.0257 8.7329 21.8472 8.33649 21.5322 8.04388C21.2171 7.75128 20.791 7.58604 20.346 7.58398Z" fill="black"/>
<path opacity="0.2" d="M19.4284 8.4397H9.17969V29.7684H19.4284C19.8734 29.7664 20.2995 29.6011 20.6146 29.3085C20.9296 29.0159 21.1081 28.6195 21.1114 28.2052V10.0029C21.1081 9.58861 20.9296 9.1922 20.6146 8.8996C20.2995 8.60699 19.8734 8.44176 19.4284 8.4397Z" fill="black"/>
<path opacity="0.2" d="M19.4284 8.4397H9.17969V28.0621H19.4284C19.8734 28.0601 20.2995 27.8948 20.6146 27.6022C20.9296 27.3096 21.1081 26.9132 21.1114 26.4989V10.0029C21.1081 9.58861 20.9296 9.1922 20.6146 8.8996C20.2995 8.60699 19.8734 8.44176 19.4284 8.4397Z" fill="black"/>
<path opacity="0.2" d="M18.5108 8.4397H9.17969V28.0621H18.5108C18.9558 28.0601 19.3819 27.8948 19.6969 27.6022C20.012 27.3096 20.1905 26.9132 20.1938 26.4989V10.0029C20.1905 9.58861 20.012 9.1922 19.6969 8.8996C19.3819 8.60699 18.9558 8.44176 18.5108 8.4397Z" fill="black"/>
<path d="M1.68299 8.4397H18.51C18.9558 8.43935 19.3834 8.60381 19.699 8.89693C20.0146 9.19006 20.1923 9.58787 20.193 10.0029V25.6457C20.1923 26.0608 20.0146 26.4586 19.699 26.7517C19.3834 27.0449 18.9558 27.2093 18.51 27.209H1.68299C1.46223 27.2093 1.24356 27.1692 1.03947 27.0908C0.835394 27.0124 0.649903 26.8973 0.493605 26.7521C0.337306 26.6069 0.213265 26.4345 0.128569 26.2447C0.0438736 26.0548 0.000184892 25.8513 0 25.6457V10.0029C0.000184892 9.79736 0.0438736 9.59384 0.128569 9.404C0.213265 9.21416 0.337306 9.04173 0.493605 8.89655C0.649903 8.75137 0.835394 8.6363 1.03947 8.55791C1.24356 8.47952 1.46223 8.43935 1.68299 8.4397Z" fill="url(#paint0_linear_4689_11284)"/>
<path d="M5.21094 22.9084L8.75029 17.8105L5.50835 12.7415H8.11177L9.88073 15.9874C10.0442 16.2945 10.1626 16.5229 10.2162 16.6751H10.2402C10.3557 16.4284 10.4784 16.1908 10.6066 15.9585L12.4982 12.7467H14.8945L11.5694 17.7868L14.979 22.9123H12.4292L10.3853 19.354C10.2905 19.201 10.2098 19.0408 10.1443 18.8749H10.1105C10.0509 19.0365 9.97143 19.1911 9.87369 19.3356L7.76925 22.9084H5.21094Z" fill="white"/>
<path d="M37.7842 0.759768H24.7812V9.29126H39.4672V2.323C39.467 2.11743 39.4233 1.91391 39.3387 1.72407C39.254 1.53423 39.1299 1.3618 38.9736 1.21662C38.8173 1.07144 38.6318 0.956371 38.4277 0.877982C38.2237 0.799593 38.005 0.759423 37.7842 0.759768Z" fill="#33C481"/>
<path d="M24.7812 17.8214H39.4672V26.3529H24.7812V17.8214Z" fill="#107C41"/>
<defs>
<linearGradient id="paint0_linear_4689_11284" x1="3.51539" y1="7.21116" x2="15.3207" y2="29.1671" gradientUnits="userSpaceOnUse">
<stop stop-color="#18884F"/>
<stop offset="0.5" stop-color="#117E43"/>
<stop offset="1" stop-color="#0B6631"/>
</linearGradient>
</defs>
</svg>
