<svg width="40" height="37" viewBox="0 0 40 37" fill="none" xmlns="http://www.w3.org/2000/svg">
<path d="M31.7124 0.229248L39.555 7.84196V36.7913H10.2578V36.8858H39.6551V7.93778L31.7124 0.229248Z" fill="#909090"/>
<path d="M31.6214 0.136719H10.1641V36.7932H39.5614V7.84525L31.62 0.136719" fill="#F1E8E8"/>
<path d="M9.94444 2.10364H0.9375V11.0643H29.2692V2.10364H9.94444Z" fill="#7A7B7C"/>
<path d="M29.4243 10.9157H1.125V1.94849H29.4243V10.9157Z" fill="#DD2025"/>
<path d="M10.5063 3.46226H8.66406V9.76243H10.1131V7.63744L10.433 7.6545C10.7439 7.64952 11.0519 7.59766 11.345 7.50093C11.602 7.41863 11.8384 7.2887 12.0399 7.11898C12.245 6.95731 12.4067 6.75325 12.5121 6.52309C12.6535 6.14049 12.704 5.73386 12.6601 5.33131C12.6513 5.04374 12.5972 4.75894 12.4994 4.48604C12.4104 4.28903 12.2784 4.11144 12.1117 3.96455C11.945 3.81767 11.7472 3.70472 11.5311 3.63289C11.3442 3.56988 11.1511 3.52416 10.9546 3.49638C10.8057 3.475 10.6555 3.4636 10.5049 3.46226M10.2385 6.47322H10.1131V4.53066H10.3851C10.5052 4.5226 10.6256 4.53976 10.7376 4.58088C10.8496 4.622 10.9502 4.68603 11.0321 4.76823C11.2017 4.97957 11.2923 5.23681 11.29 5.50063C11.29 5.82351 11.29 6.11621 10.9771 6.32227C10.7517 6.43773 10.4951 6.48971 10.2385 6.4719M15.4129 3.44519C15.2565 3.44519 15.1042 3.45569 14.9971 3.45963L14.6616 3.46751H13.5622V9.76768H14.8562C15.3507 9.78031 15.843 9.70226 16.3052 9.53799C16.6772 9.4006 17.0066 9.17911 17.2636 8.89353C17.5136 8.60537 17.6931 8.26987 17.7894 7.91044C17.9001 7.50338 17.9542 7.08475 17.9501 6.66485C17.9774 6.16891 17.9362 5.67177 17.8275 5.18562C17.7243 4.82777 17.531 4.49797 17.2636 4.22353C17.0539 4.00192 16.7971 3.82316 16.5095 3.69851C16.2626 3.59209 16.0028 3.51365 15.7357 3.46488C15.6295 3.44855 15.522 3.44108 15.4143 3.44257M15.1578 8.61003H15.0168V4.58841H15.0352C15.3258 4.55728 15.6198 4.6061 15.8809 4.72885C16.0721 4.87104 16.2279 5.05016 16.3376 5.25387C16.4559 5.46825 16.5241 5.70355 16.5377 5.94426C16.5504 6.23302 16.5377 6.46928 16.5377 6.66485C16.5435 6.89013 16.5279 7.11544 16.4912 7.33818C16.4478 7.56686 16.3675 7.78811 16.253 7.99445C16.1235 8.18628 15.9484 8.34792 15.7413 8.46696C15.5674 8.5717 15.3615 8.62056 15.155 8.60609M22.3154 3.46751H18.8903V9.76768H20.3393V7.26861H22.1717V6.09783H20.3393V4.63829H22.3126V3.46751" fill="#464648"/>
<path d="M28.4487 24.0941C28.4487 24.0941 32.9423 23.3354 32.9423 24.7648C32.9423 26.1941 30.1584 25.6127 28.4487 24.0941ZM25.1264 24.203C24.4124 24.3499 23.7167 24.565 23.0501 24.8448L23.6139 23.6635C24.1778 22.4823 24.7627 20.8718 24.7627 20.8718C25.4355 21.9262 26.2183 22.9163 27.0997 23.8276C26.435 23.9199 25.7762 24.0461 25.1264 24.2056V24.203ZM23.3475 15.6715C23.3475 14.4259 23.7803 14.086 24.1172 14.086C24.454 14.086 24.8332 14.2369 24.8459 15.3184C24.7361 16.406 24.4916 17.478 24.1172 18.5132C23.6042 17.644 23.3388 16.6671 23.3461 15.6754L23.3475 15.6715ZM16.7946 29.4741C15.4161 28.7063 19.6856 26.3424 20.4594 26.2663C20.4552 26.2676 18.238 30.2774 16.7946 29.4741ZM34.2545 24.9341C34.2404 24.8028 34.1136 23.3499 31.3368 23.4115C30.1794 23.3942 29.0225 23.4701 27.8792 23.6386C26.7717 22.5996 25.8179 21.4277 25.0432 20.1538C25.5313 18.8405 25.8267 17.4719 25.9214 16.085C25.8805 14.5099 25.4759 13.6069 24.1792 13.62C22.8824 13.6331 22.6935 14.6897 22.8641 16.2622C23.0311 17.3188 23.3463 18.3505 23.8014 19.3309C23.8014 19.3309 23.2024 21.0673 22.4102 22.7946C21.618 24.5219 21.0768 25.4276 21.0768 25.4276C19.6993 25.8452 18.4025 26.4655 17.2358 27.2651C16.0743 28.2719 15.6021 29.0449 16.2139 29.818C16.741 30.4848 18.5861 30.6357 20.2353 28.6236C21.1115 27.5844 21.9121 26.4916 22.6315 25.3528C22.6315 25.3528 25.1461 24.711 25.9284 24.5351C26.7107 24.3592 27.6565 24.2201 27.6565 24.2201C27.6565 24.2201 29.9526 26.3713 32.167 26.2952C34.3814 26.2191 34.2743 25.0627 34.2602 24.9367" fill="#DD2025"/>
<path d="M31.5078 0.239258V7.94779H39.4477L31.5078 0.239258Z" fill="#909090"/>
<path d="M31.6172 0.136719V7.84525H39.5571L31.6172 0.136719Z" fill="#F4F4F4"/>
<path d="M10.397 3.35972H8.55469V9.65989H10.0093V7.53621L10.3307 7.55327C10.6416 7.54829 10.9496 7.49643 11.2427 7.39971C11.4996 7.31737 11.736 7.18745 11.9376 7.01776C12.1411 6.85565 12.3013 6.65163 12.4055 6.42187C12.5469 6.03926 12.5974 5.63264 12.5535 5.23008C12.5447 4.94252 12.4906 4.65771 12.3929 4.38481C12.3039 4.18781 12.1718 4.01021 12.0051 3.86333C11.8384 3.71645 11.6407 3.60349 11.4245 3.53166C11.2368 3.46804 11.0427 3.42188 10.8452 3.39384C10.6964 3.37246 10.5461 3.36106 10.3955 3.35972M10.1291 6.37068H10.0037V4.42812H10.2771C10.3972 4.42006 10.5177 4.43722 10.6297 4.47834C10.7417 4.51946 10.8423 4.58349 10.9241 4.66569C11.0937 4.87703 11.1843 5.13427 11.1821 5.39809C11.1821 5.72097 11.1821 6.01367 10.8691 6.21974C10.6437 6.33519 10.3871 6.38717 10.1306 6.36936M15.3036 3.34265C15.1471 3.34265 14.9949 3.35316 14.8877 3.35709L14.5565 3.36497H13.4571V9.66514H14.751C15.2455 9.67777 15.7379 9.59972 16.2 9.43545C16.572 9.29806 16.9014 9.07658 17.1585 8.791C17.4085 8.50283 17.5879 8.16733 17.6843 7.80791C17.795 7.40085 17.849 6.98221 17.8449 6.56231C17.8723 6.06638 17.8311 5.56923 17.7223 5.08308C17.6191 4.72523 17.4258 4.39543 17.1585 4.12099C16.9488 3.89938 16.692 3.72063 16.4044 3.59597C16.1574 3.48955 15.8976 3.41111 15.6306 3.36234C15.5244 3.34601 15.4168 3.33854 15.3092 3.34003M15.0527 8.50749H14.9117V4.48587H14.93C15.2206 4.45474 15.5146 4.50356 15.7757 4.62632C15.967 4.7685 16.1228 4.94762 16.2324 5.15133C16.3508 5.36571 16.419 5.60101 16.4326 5.84172C16.4453 6.13048 16.4326 6.36674 16.4326 6.56231C16.4383 6.78759 16.4228 7.0129 16.3861 7.23564C16.3426 7.46432 16.2623 7.68558 16.1479 7.89191C16.0183 8.08374 15.8433 8.24538 15.6362 8.36442C15.4623 8.46916 15.2564 8.51802 15.0498 8.50355M22.2061 3.36497H18.7809V9.66514H20.2299V7.16607H22.0623V5.99529H20.2299V4.53575H22.2032V3.36497" fill="white"/>
</svg>
