<svg width="41" height="41" viewBox="0 0 41 41" fill="none" xmlns="http://www.w3.org/2000/svg">
<path d="M31.0475 30.9805H9.71223C9.37441 30.9805 9.05042 30.8463 8.81155 30.6075C8.57268 30.3686 8.43848 30.0446 8.43848 29.7068V11.053C8.43848 10.7152 8.57268 10.3912 8.81155 10.1524C9.05042 9.9135 9.37441 9.7793 9.71223 9.7793H15.0187C15.9214 9.7793 16.7542 10.2665 17.1965 11.053C17.6391 11.8399 18.4715 12.3268 19.3743 12.3268H31.0475C31.3854 12.3268 31.7093 12.461 31.9482 12.6999C32.1871 12.9387 32.3213 13.2627 32.3213 13.6005V29.7065C32.3213 30.0443 32.1871 30.3683 31.9482 30.6072C31.7093 30.846 31.3854 30.9802 31.0475 30.9802V30.9805Z" fill="#FCD462"/>
<path d="M11.1455 13.7686H29.6149V24.277H11.1455V13.7686Z" fill="#E1E6E9"/>
<path d="M9.71223 30.9815H31.0475C31.3854 30.9815 31.7093 30.8473 31.9482 30.6084C32.1871 30.3696 32.3213 30.0456 32.3213 29.7078V18.5462C32.3213 18.2084 32.1871 17.8844 31.9482 17.6455C31.7093 17.4067 31.3854 17.2725 31.0475 17.2725H21.8402C21.6142 17.2725 21.3923 17.3326 21.1972 17.4467C21.0022 17.5608 20.841 17.7248 20.7302 17.9218L20.0277 19.1707C19.9169 19.3676 19.7557 19.5316 19.5606 19.6457C19.3655 19.7598 19.1436 19.8199 18.9176 19.82H9.71223C9.37441 19.82 9.05042 19.9542 8.81155 20.193C8.57268 20.4319 8.43848 20.7559 8.43848 21.0937V29.7074C8.43848 30.0453 8.57268 30.3692 8.81155 30.6081C9.05042 30.847 9.37441 30.9812 9.71223 30.9812V30.9815Z" fill="#F6C358"/>
<path d="M13.0836 15.2013H27.6756C27.739 15.2013 27.7997 15.1761 27.8445 15.1313C27.8893 15.0865 27.9145 15.0258 27.9145 14.9625C27.9145 14.8991 27.8893 14.8384 27.8445 14.7936C27.7997 14.7488 27.739 14.7236 27.6756 14.7236H13.0836C13.0202 14.7236 12.9595 14.7488 12.9147 14.7936C12.8699 14.8384 12.8447 14.8991 12.8447 14.9625C12.8447 15.0258 12.8699 15.0865 12.9147 15.1313C12.9595 15.1761 13.0202 15.2013 13.0836 15.2013Z" fill="#D5D6DB"/>
<path d="M27.6756 15.999H13.0836C13.0202 15.999 12.9595 16.0242 12.9147 16.069C12.8699 16.1138 12.8447 16.1745 12.8447 16.2379C12.8447 16.3012 12.8699 16.3619 12.9147 16.4067C12.9595 16.4515 13.0202 16.4767 13.0836 16.4767H27.6756C27.739 16.4767 27.7997 16.4515 27.8445 16.4067C27.8893 16.3619 27.9145 16.3012 27.9145 16.2379C27.9145 16.1745 27.8893 16.1138 27.8445 16.069C27.7997 16.0242 27.739 15.999 27.6756 15.999Z" fill="#D5D6DB"/>
<path d="M18.1225 17.2725H13.0836C13.0202 17.2725 12.9595 17.2976 12.9147 17.3424C12.8699 17.3872 12.8447 17.4479 12.8447 17.5113C12.8447 17.5746 12.8699 17.6354 12.9147 17.6802C12.9595 17.725 13.0202 17.7501 13.0836 17.7501H18.1225C18.1859 17.7501 18.2466 17.725 18.2914 17.6802C18.3362 17.6354 18.3613 17.5746 18.3613 17.5113C18.3613 17.4479 18.3362 17.3872 18.2914 17.3424C18.2466 17.2976 18.1859 17.2725 18.1225 17.2725Z" fill="#D5D6DB"/>
</svg>
