<svg width="25" height="23" viewBox="0 0 25 23" fill="none" xmlns="http://www.w3.org/2000/svg">
<path d="M23.376 9.45241L13.4172 0.587412C13.2972 0.481967 13.1543 0.398274 12.9969 0.341159C12.8395 0.284044 12.6707 0.254639 12.5001 0.254639C12.3296 0.254639 12.1608 0.284044 12.0034 0.341159C11.846 0.398274 11.7031 0.481967 11.5831 0.587412L1.62432 9.46366C1.38334 9.67524 1.19302 9.9264 1.06441 10.2026C0.935808 10.4787 0.871474 10.7744 0.875149 11.0724V20.4999C0.874148 21.0758 1.12673 21.6301 1.58088 22.0487C2.03503 22.4673 2.65618 22.7182 3.3164 22.7499H21.6839C22.3441 22.7182 22.9653 22.4673 23.4194 22.0487C23.8736 21.6301 24.1261 21.0758 24.1251 20.4999V11.0724C24.1262 10.4682 23.8575 9.88732 23.376 9.45241ZM9.91682 20.4999V13.7499H15.0835V20.4999H9.91682ZM21.5418 20.4999H17.6668V12.6249C17.6668 12.3265 17.5307 12.0404 17.2885 11.8294C17.0463 11.6184 16.7177 11.4999 16.3751 11.4999H8.62515C8.28258 11.4999 7.95404 11.6184 7.7118 11.8294C7.46957 12.0404 7.33348 12.3265 7.33348 12.6249V20.4999H3.45848V11.0274L12.5001 2.98366L21.5418 11.0724V20.4999Z" fill="black"/>
</svg>
