<svg width="25" height="23" viewBox="0 0 25 23" fill="none" xmlns="http://www.w3.org/2000/svg">
<path d="M5.76923 3.28571C5.76923 2.41429 6.17445 1.57855 6.89574 0.962363C7.61704 0.346173 8.59532 0 9.61539 0H16.5115C17.2763 0.000575171 18.0095 0.260582 18.55 0.722857L24.1558 5.51014C24.6962 5.97211 24.9998 6.59846 25 7.25157V19.7143C25 20.5857 24.5948 21.4214 23.8735 22.0376C23.1522 22.6538 22.1739 23 21.1538 23H14.7365C15.5113 22.5337 16.2098 21.9812 16.8135 21.3571H21.1538C21.6639 21.3571 22.153 21.1841 22.5137 20.876C22.8743 20.5679 23.0769 20.15 23.0769 19.7143V8.21429H18.2692C17.5042 8.21429 16.7705 7.95466 16.2295 7.49251C15.6885 7.03037 15.3846 6.40357 15.3846 5.75V1.64286H9.61539C9.10535 1.64286 8.61621 1.81594 8.25556 2.12404C7.89492 2.43213 7.69231 2.85 7.69231 3.28571V6.60757C7.04164 6.65774 6.39784 6.75949 5.76923 6.9115V3.28571ZM18.2692 6.57143H22.6788L17.3077 1.98293V5.75C17.3077 5.96786 17.409 6.17679 17.5893 6.33084C17.7696 6.48489 18.0142 6.57143 18.2692 6.57143ZM8.65385 23C9.79029 23 10.9156 22.8088 11.9655 22.4373C13.0155 22.0657 13.9695 21.5212 14.773 20.8347C15.5766 20.1482 16.2141 19.3332 16.649 18.4363C17.0839 17.5393 17.3077 16.578 17.3077 15.6071C17.3077 14.6363 17.0839 13.675 16.649 12.778C16.2141 11.8811 15.5766 11.0661 14.773 10.3796C13.9695 9.69311 13.0155 9.14856 11.9655 8.77703C10.9156 8.40551 9.79029 8.21429 8.65385 8.21429C6.3587 8.21429 4.15756 8.99317 2.53465 10.3796C0.911742 11.766 0 13.6464 0 15.6071C0 17.5679 0.911742 19.4483 2.53465 20.8347C4.15756 22.2211 6.3587 23 8.65385 23ZM13.1808 15.0256C13.3613 15.1798 13.4628 15.389 13.4628 15.6071C13.4628 15.8253 13.3613 16.0345 13.1808 16.1887C13.0002 16.343 12.7553 16.4296 12.5 16.4296C12.2447 16.4296 11.9998 16.343 11.8192 16.1887L9.61539 14.3044V18.8929C9.61539 19.1107 9.51408 19.3196 9.33376 19.4737C9.15343 19.6277 8.90886 19.7143 8.65385 19.7143C8.39883 19.7143 8.15426 19.6277 7.97394 19.4737C7.79361 19.3196 7.69231 19.1107 7.69231 18.8929V14.3044L5.48846 16.1887C5.30791 16.343 5.06303 16.4296 4.80769 16.4296C4.55235 16.4296 4.30747 16.343 4.12692 16.1887C3.94637 16.0345 3.84494 15.8253 3.84494 15.6071C3.84494 15.389 3.94637 15.1798 4.12692 15.0256L7.97308 11.7399C8.15222 11.587 8.39485 11.5007 8.64808 11.5H8.65962C8.91034 11.501 9.15062 11.5859 9.32885 11.7366L9.33462 11.7415L13.1808 15.0272V15.0256Z" fill="black"/>
</svg>
