<svg width="43" height="33" viewBox="0 0 43 33" fill="none" xmlns="http://www.w3.org/2000/svg">
<path d="M13.2917 31.4167H37.4583V27.0833H13.2917V31.4167ZM13.2917 18.4167H27.7917V14.0833H13.2917V18.4167ZM13.2917 1.08333V5.41667H42.2917V1.08333H13.2917ZM3.625 1.80734e-07C3.1488 0.000142437 2.67729 0.0843747 2.2374 0.247888C1.79751 0.411402 1.39785 0.650995 1.06124 0.952987C0.724625 1.25498 0.457654 1.61345 0.275567 2.00795C0.0934792 2.40244 -0.000158479 2.82523 2.01341e-07 3.25217C0.000158882 3.67911 0.0941108 4.10184 0.276491 4.49622C0.458872 4.89061 0.72611 5.24892 1.06295 5.55071C1.39978 5.8525 1.79962 6.09186 2.23963 6.25511C2.67965 6.41836 3.15122 6.50231 3.62742 6.50217C4.58915 6.50188 5.51136 6.15908 6.19118 5.54918C6.871 4.93928 7.25274 4.11224 7.25242 3.25C7.2521 2.38776 6.86974 1.56095 6.18947 0.951454C5.5092 0.341961 4.58673 -0.000287119 3.625 1.80734e-07ZM3.625 13C3.1488 13.0001 2.67729 13.0844 2.2374 13.2479C1.79751 13.4114 1.39785 13.651 1.06124 13.953C0.724625 14.255 0.457653 14.6135 0.275566 15.0079C0.0934786 15.4024 -0.000158479 15.8252 2.01341e-07 16.2522C0.000158882 16.6791 0.0941108 17.1018 0.276491 17.4962C0.458872 17.8906 0.72611 18.2489 1.06295 18.5507C1.39978 18.8525 1.79962 19.0919 2.23963 19.2551C2.67965 19.4184 3.15122 19.5023 3.62742 19.5022C4.58915 19.5019 5.51136 19.1591 6.19118 18.5492C6.871 17.9393 7.25274 17.1122 7.25242 16.25C7.2521 15.3878 6.86974 14.5609 6.18947 13.9515C5.5092 13.342 4.58673 12.9997 3.625 13ZM3.625 26C3.1488 26.0001 2.67729 26.0844 2.2374 26.2479C1.79751 26.4114 1.39785 26.651 1.06124 26.953C0.724625 27.255 0.457653 27.6135 0.275566 28.008C0.0934786 28.4024 -0.000158479 28.8252 2.01341e-07 29.2522C0.000158882 29.6791 0.0941108 30.1018 0.276491 30.4962C0.458872 30.8906 0.72611 31.2489 1.06295 31.5507C1.39978 31.8525 1.79962 32.0919 2.23963 32.2551C2.67965 32.4184 3.15122 32.5023 3.62742 32.5022C4.58915 32.5019 5.51136 32.1591 6.19118 31.5492C6.871 30.9393 7.25274 30.1122 7.25242 29.25C7.2521 28.3878 6.86974 27.5609 6.18947 26.9515C5.5092 26.342 4.58673 25.9997 3.625 26Z" fill="white"/>
</svg>
