<svg width="33" height="33" viewBox="0 0 33 33" fill="none" xmlns="http://www.w3.org/2000/svg">
<g filter="url(#filter0_d_5532_1905)">
<path d="M5.35938 24.15H25.4844C25.6195 24.15 25.749 24.0963 25.8446 24.0008C25.9401 23.9053 25.9937 23.7757 25.9937 23.6406V3.51562C25.9937 3.38053 25.9401 3.25097 25.8446 3.15544C25.749 3.05992 25.6195 3.00625 25.4844 3.00625H5.35938C5.22428 3.00625 5.09472 3.05992 4.99919 3.15544C4.90367 3.25097 4.85 3.38053 4.85 3.51562V23.6406C4.85 23.7757 4.90367 23.9053 4.99919 24.0008C5.09472 24.0963 5.22428 24.15 5.35938 24.15ZM24.975 4.025V23.1313H5.86875V4.025H24.975Z" fill="white" stroke="white" stroke-width="0.3"/>
<path d="M27.2804 22.2039C27.376 22.2995 27.5055 22.3531 27.6406 22.3531C27.7757 22.3531 27.9053 22.2995 28.0008 22.2039C28.0963 22.1084 28.15 21.9788 28.15 21.8438V1.35938C28.15 1.22428 28.0963 1.09472 28.0008 0.999192C27.9053 0.903666 27.7757 0.85 27.6406 0.85H7.15625C7.02116 0.85 6.89159 0.903666 6.79607 0.999192C6.70054 1.09472 6.64687 1.22428 6.64687 1.35938C6.64687 1.49447 6.70054 1.62403 6.79607 1.71956C6.89159 1.81508 7.02116 1.86875 7.15625 1.86875H27.1313V21.8438C27.1313 21.9788 27.1849 22.1084 27.2804 22.2039Z" fill="white" stroke="white" stroke-width="0.3"/>
<path d="M12.5665 17.1691L19.4673 8.90757C19.5088 8.85417 19.5605 8.80956 19.6195 8.77636C19.6795 8.74261 19.7456 8.72135 19.814 8.71386C19.8824 8.70638 19.9516 8.71282 20.0174 8.73281C20.0832 8.7528 20.1443 8.78591 20.197 8.83016C20.2497 8.8744 20.2929 8.92886 20.3239 8.99024C20.355 9.05163 20.3733 9.11867 20.3777 9.18732C20.3822 9.25597 20.3727 9.32481 20.3498 9.38969C20.3273 9.45335 20.2924 9.5119 20.2472 9.56194L12.9916 18.251L12.9912 18.2514C12.9456 18.3056 12.8892 18.3496 12.8256 18.3808C12.7621 18.4119 12.6927 18.4294 12.6219 18.4323L12.616 18.4325V18.4324H12.6019H12.6016V18.2824C12.5543 18.2827 12.5074 18.2736 12.4636 18.2557C12.4198 18.2378 12.38 18.2115 12.3464 18.1782L12.5665 17.1691ZM12.5665 17.1691L7.87815 12.4807C7.83223 12.431 7.77685 12.3909 7.71524 12.3628C7.65246 12.3342 7.58452 12.3186 7.51553 12.317C7.44655 12.3155 7.37797 12.3279 7.31394 12.3536C7.24992 12.3794 7.19179 12.4179 7.14309 12.4667C7.09438 12.5156 7.05612 12.5739 7.03061 12.638C7.0051 12.7021 6.99289 12.7707 6.99471 12.8397C6.99653 12.9087 7.01234 12.9766 7.04119 13.0393C7.06946 13.1007 7.10967 13.1558 7.15946 13.2015L12.5665 17.1691ZM15.7029 18.2842L15.7034 18.2847L16.0642 18.2824V18.4324H16.0645H16.0785V18.4325L16.0845 18.4323C16.1553 18.4294 16.2246 18.4119 16.2882 18.3808C16.3518 18.3496 16.4082 18.3056 16.4538 18.2514L16.4542 18.251L23.7097 9.56196C23.755 9.51191 23.7899 9.45336 23.8123 9.38969C23.8352 9.32481 23.8447 9.25597 23.8403 9.18732C23.8359 9.11867 23.8176 9.05163 23.7865 8.99024C23.7554 8.92886 23.7123 8.8744 23.6596 8.83016C23.6069 8.78591 23.5458 8.7528 23.48 8.73281C23.4142 8.71282 23.345 8.70638 23.2766 8.71386C23.2082 8.72135 23.142 8.74261 23.0821 8.77636C23.0231 8.80956 22.9714 8.85417 22.9299 8.90757L16.0291 17.1691L15.7659 16.9059C15.6704 16.8104 15.5408 16.7567 15.4056 16.7567C15.2705 16.7567 15.1408 16.8104 15.0453 16.9059C14.9497 17.0015 14.896 17.1311 14.896 17.2663C14.896 17.4014 14.9497 17.531 15.0453 17.6266L15.7029 18.2842Z" fill="white" stroke="white" stroke-width="0.3"/>
</g>
<defs>
<filter id="filter0_d_5532_1905" x="0.699219" y="0.699951" width="31.6016" height="31.6001" filterUnits="userSpaceOnUse" color-interpolation-filters="sRGB">
<feFlood flood-opacity="0" result="BackgroundImageFix"/>
<feColorMatrix in="SourceAlpha" type="matrix" values="0 0 0 0 0 0 0 0 0 0 0 0 0 0 0 0 0 0 127 0" result="hardAlpha"/>
<feOffset dy="4"/>
<feGaussianBlur stdDeviation="2"/>
<feComposite in2="hardAlpha" operator="out"/>
<feColorMatrix type="matrix" values="0 0 0 0 0 0 0 0 0 0 0 0 0 0 0 0 0 0 0.25 0"/>
<feBlend mode="normal" in2="BackgroundImageFix" result="effect1_dropShadow_5532_1905"/>
<feBlend mode="normal" in="SourceGraphic" in2="effect1_dropShadow_5532_1905" result="shape"/>
</filter>
</defs>
</svg>
