<svg width="33" height="33" viewBox="0 0 33 33" fill="none" xmlns="http://www.w3.org/2000/svg">
<path d="M27.4975 31.1132C26.4137 31.1132 25.9135 30.7698 25.2794 30.3349C24.5591 29.841 23.6624 29.2264 21.995 29.2264C20.328 29.2264 19.4323 29.8415 18.7124 30.3349C18.0793 30.7698 17.5786 31.1132 16.4967 31.1132C15.4134 31.1132 14.9127 30.7698 14.2791 30.3349C13.5592 29.8415 12.663 29.2264 10.9956 29.2264C9.3291 29.2264 8.43291 29.8415 7.71304 30.3349C7.07991 30.7698 6.57973 31.1132 5.49733 31.1132C4.41493 31.1132 3.91521 30.7698 3.28161 30.3349C2.56221 29.842 1.6665 29.2264 0 29.2264V31.1132C1.08193 31.1132 1.58164 31.4566 2.21524 31.8915C2.93464 32.3844 3.83036 33 5.49686 33C7.16383 33 8.05954 32.3849 8.77941 31.8915C9.41254 31.4566 9.91273 31.1132 10.9951 31.1132C12.0785 31.1132 12.5791 31.4566 13.2123 31.8915C13.9326 32.3849 14.8288 33 16.4958 33C18.1627 33 19.0589 32.3849 19.7783 31.8915C20.4129 31.4561 20.9126 31.1132 21.995 31.1132C23.0793 31.1132 23.579 31.4566 24.213 31.8915C24.9339 32.3854 25.83 33 27.4975 33C29.1649 33 30.0616 32.3854 30.7819 31.8915C31.416 31.4561 31.9157 31.1132 33 31.1132V29.2264C31.3326 29.2264 30.4364 29.841 29.7156 30.3349C29.0815 30.7698 28.5813 31.1132 27.4975 31.1132ZM27.4975 26.8679C26.4137 26.8679 25.9135 26.5245 25.2794 26.0896C24.5591 25.5957 23.6624 24.9811 21.995 24.9811C20.328 24.9811 19.4323 25.5962 18.7124 26.0896C18.0793 26.5245 17.5786 26.8679 16.4967 26.8679C15.4134 26.8679 14.9127 26.5245 14.2791 26.0896C13.5592 25.5962 12.663 24.9811 10.9956 24.9811C9.3291 24.9811 8.43291 25.5962 7.71304 26.0896C7.07991 26.5245 6.57973 26.8679 5.49733 26.8679C4.41493 26.8679 3.91521 26.5245 3.28161 26.0896C2.56221 25.5967 1.6665 24.9811 0 24.9811V26.8679C1.08193 26.8679 1.58164 27.2113 2.21524 27.6462C2.93464 28.1391 3.83036 28.7547 5.49686 28.7547C7.16383 28.7547 8.05954 28.1396 8.77941 27.6462C9.41254 27.2113 9.91273 26.8679 10.9951 26.8679C12.0785 26.8679 12.5791 27.2113 13.2123 27.6462C13.9326 28.1396 14.8288 28.7547 16.4958 28.7547C18.1627 28.7547 19.0589 28.1396 19.7783 27.6462C20.4129 27.2108 20.9126 26.8679 21.995 26.8679C23.0793 26.8679 23.579 27.2113 24.213 27.6462C24.9339 28.1401 25.83 28.7547 27.4975 28.7547C29.1649 28.7547 30.0616 28.1401 30.7819 27.6462C31.416 27.2108 31.9157 26.8679 33 26.8679V24.9811C31.3326 24.9811 30.4364 25.5957 29.7156 26.0896C29.0815 26.5245 28.5813 26.8679 27.4975 26.8679ZM27.4975 22.6226C26.4137 22.6226 25.9135 22.2792 25.2794 21.8443C24.5591 21.3504 23.6624 20.7358 21.995 20.7358C20.328 20.7358 19.4323 21.3509 18.7124 21.8443C18.0793 22.2792 17.5786 22.6226 16.4967 22.6226C15.4134 22.6226 14.9127 22.2792 14.2791 21.8443C13.5592 21.3509 12.663 20.7358 10.9956 20.7358C9.3291 20.7358 8.43291 21.3509 7.71304 21.8443C7.07991 22.2792 6.57973 22.6226 5.49733 22.6226C4.41493 22.6226 3.91521 22.2792 3.28161 21.8443C2.56221 21.3514 1.6665 20.7358 0 20.7358V22.6226C1.08193 22.6226 1.58164 22.966 2.21524 23.4009C2.93464 23.8938 3.83036 24.5094 5.49686 24.5094C7.16383 24.5094 8.05954 23.8943 8.77941 23.4009C9.41254 22.966 9.91273 22.6226 10.9951 22.6226C12.0785 22.6226 12.5791 22.966 13.2123 23.4009C13.9326 23.8943 14.8288 24.5094 16.4958 24.5094C18.1627 24.5094 19.0589 23.8943 19.7783 23.4009C20.4129 22.9655 20.9126 22.6226 21.995 22.6226C23.0793 22.6226 23.579 22.966 24.213 23.4009C24.9339 23.8948 25.83 24.5094 27.4975 24.5094C29.1649 24.5094 30.0616 23.8948 30.7819 23.4009C31.416 22.9655 31.9157 22.6226 33 22.6226V20.7358C31.3326 20.7358 30.4364 21.3504 29.7156 21.8443C29.0815 22.2792 28.5813 22.6226 27.4975 22.6226ZM27.4975 18.3773C26.4137 18.3773 25.9135 18.0339 25.2794 17.599C24.5591 17.1051 23.6624 16.4905 21.995 16.4905C20.328 16.4905 19.4323 17.1056 18.7124 17.599C18.0793 18.0339 17.5786 18.3773 16.4967 18.3773C15.4134 18.3773 14.9127 18.0339 14.2791 17.599C13.5592 17.1056 12.663 16.4905 10.9956 16.4905C9.3291 16.4905 8.43291 17.1056 7.71304 17.599C7.07991 18.0339 6.57973 18.3773 5.49733 18.3773C4.41493 18.3773 3.91521 18.0339 3.28161 17.599C2.56221 17.1061 1.6665 16.4905 0 16.4905V18.3773C1.08193 18.3773 1.58164 18.7207 2.21524 19.1556C2.93464 19.6485 3.83036 20.2641 5.49686 20.2641C7.16383 20.2641 8.05954 19.649 8.77941 19.1556C9.41254 18.7207 9.91273 18.3773 10.9951 18.3773C12.0785 18.3773 12.5791 18.7207 13.2123 19.1556C13.9326 19.649 14.8288 20.2641 16.4958 20.2641C18.1627 20.2641 19.0589 19.649 19.7783 19.1556C20.4129 18.7202 20.9126 18.3773 21.995 18.3773C23.0793 18.3773 23.579 18.7207 24.213 19.1556C24.9339 19.6495 25.83 20.2641 27.4975 20.2641C29.1649 20.2641 30.0616 19.6495 30.7819 19.1556C31.416 18.7202 31.9157 18.3773 33 18.3773V16.4905C31.3326 16.4905 30.4364 17.1051 29.7156 17.599C29.0815 18.0339 28.5813 18.3773 27.4975 18.3773ZM9.1608 0.338563C8.9793 0.567809 4.71429 5.9999 4.71429 9.88671C4.71429 12.7476 7.04079 15.0754 9.9 15.0754C12.7592 15.0754 15.0857 12.7476 15.0857 9.88671C15.0857 5.9999 10.8207 0.567809 10.6392 0.338563C10.2814 -0.112854 9.51861 -0.112854 9.1608 0.338563ZM9.9 13.1886C8.08029 13.1886 6.6 11.7075 6.6 9.88671C6.6 7.68057 8.57529 4.39424 9.90047 2.50791C11.2257 4.39282 13.2 7.67632 13.2 9.88671C13.2 11.7075 11.7197 13.1886 9.9 13.1886ZM22.3613 5.05556C22.061 5.43481 19.429 8.83293 19.429 11.4028C19.4295 13.4278 21.0766 15.0754 23.1 15.0754C25.1234 15.0754 26.7705 13.4278 26.7705 11.4028C26.7705 8.83293 24.139 5.43481 23.8387 5.05556C23.4819 4.60414 22.7181 4.60414 22.3613 5.05556ZM24.8848 11.4028C24.8848 12.3877 24.0843 13.1886 23.1 13.1886C22.1157 13.1886 21.3152 12.3877 21.3152 11.4028C21.3152 10.2084 22.2995 8.45369 23.1 7.25463C23.9005 8.45369 24.8848 10.2084 24.8848 11.4028Z" fill="#B9B9B9"/>
</svg>
